<svg width="750" height="293" viewBox="0 0 750 293" fill="none" xmlns="http://www.w3.org/2000/svg">
<path d="M289.807 233.449C153.049 155.564 30.421 -18.0632 159.622 -115.792C279.412 -206.403 341.751 -106.03 480.428 -163.774C619.105 -221.519 550.677 -388.583 708.935 -429.371C800.793 -453.046 912.868 -414.921 972.145 -327.766C1031.42 -240.612 1037.9 -104.426 918.568 68.0217C805.843 230.919 668.515 283.587 549.437 289.876C430.36 296.165 329.532 256.072 289.807 233.449Z" stroke="white" stroke-opacity="0.4" stroke-width="1.76499" stroke-miterlimit="10"/>
<path d="M902.203 67.9292C799.093 217.457 673.228 266.481 563.63 272.748C454.747 278.836 362.209 242.677 324.748 221.833C197.533 150.571 83.1868 -9.48387 198.885 -101.693C305.714 -186.835 363.501 -98.8998 490.646 -152.776C494.26 -154.319 497.726 -155.939 501.056 -157.631C591.262 -203.43 579.623 -302.64 640.233 -359.982C656.686 -375.548 678.379 -388.109 708.74 -395.619C796.07 -417.218 899.536 -381.254 953.697 -300.402C1008.01 -219.103 1012.43 -92.2547 902.203 67.9292Z" stroke="white" stroke-opacity="0.4" stroke-width="1.76499" stroke-miterlimit="10"/>
<path d="M885.838 67.8334C792.343 203.992 677.94 249.371 577.822 255.617C479.133 261.505 394.806 229.37 359.689 210.215C241.743 145.88 135.946 -0.880183 238.148 -87.5979C332.015 -167.244 385.474 -91.4601 500.865 -141.782C504.191 -143.232 507.375 -144.767 510.445 -146.356C593.422 -189.202 586.807 -278.763 644.447 -329.999C660.186 -343.989 680.545 -355.273 708.545 -361.869C791.363 -381.38 886.206 -347.59 935.25 -273.04C984.594 -197.597 986.959 -80.0873 885.838 67.8334Z" stroke="white" stroke-opacity="0.4" stroke-width="1.76499" stroke-miterlimit="10"/>
<path d="M869.467 67.7436C785.587 190.532 682.668 232.465 592.008 238.492C503.534 244.373 427.445 216.018 394.624 198.602C286.115 141.02 188.696 7.76572 277.405 -73.4967C358.313 -147.613 407.321 -84.1967 511.079 -130.782C514.113 -132.145 517.019 -133.59 519.829 -135.076C595.576 -174.969 594.011 -254.878 648.655 -300.01C663.685 -312.423 682.713 -322.42 708.345 -328.115C786.67 -345.518 872.869 -313.92 916.797 -245.674C961.175 -176.085 961.482 -67.9136 869.467 67.7436Z" stroke="white" stroke-opacity="0.4" stroke-width="1.76499" stroke-miterlimit="10"/>
<path d="M853.108 67.6506C779.134 177.191 687.395 215.416 606.206 221.364C527.935 227.098 460.102 202.66 429.569 186.986C330.523 136.137 241.459 16.4583 316.673 -59.3983C384.632 -127.937 429.168 -76.9597 521.303 -119.785C524.046 -121.06 526.673 -122.415 529.225 -123.798C597.74 -160.738 601.257 -230.99 652.874 -270.024C667.204 -280.86 684.899 -289.555 708.155 -294.364C782.01 -309.633 859.747 -280.331 898.354 -218.309C937.978 -154.656 936.346 -55.6078 853.108 67.6506Z" stroke="white" stroke-opacity="0.4" stroke-width="1.76499" stroke-miterlimit="10"/>
<path d="M836.745 67.557C772.433 163.746 692.12 198.358 620.401 204.235C552.332 209.813 492.763 189.294 464.513 175.368C374.96 131.225 294.236 25.2175 355.939 -45.3012C410.975 -108.2 450.999 -69.7544 531.525 -108.789C533.977 -109.978 536.325 -111.242 538.617 -112.521C599.903 -146.509 608.542 -207.091 657.091 -240.039C670.732 -249.296 687.094 -256.674 707.963 -260.613C777.373 -273.713 846.453 -246.675 879.91 -190.947C914.604 -133.159 910.94 -43.4141 836.745 67.557Z" stroke="white" stroke-opacity="0.4" stroke-width="1.76499" stroke-miterlimit="10"/>
<path d="M820.379 67.4634C765.711 150.293 696.843 181.289 634.592 187.106C576.728 192.513 525.433 175.919 499.453 163.751C419.432 126.277 347.058 34.0701 395.203 -31.2035C437.373 -88.3764 472.806 -62.589 541.744 -97.7923C543.904 -98.8957 545.974 -100.067 548.008 -101.244C602.063 -132.279 615.877 -183.169 661.304 -210.053C674.269 -217.726 689.295 -223.77 707.768 -226.862C772.763 -237.739 833.142 -213.012 861.462 -163.583C891.215 -111.656 885.516 -31.2272 820.379 67.4634Z" stroke="white" stroke-opacity="0.4" stroke-width="1.76499" stroke-miterlimit="10"/>
<path d="M804.012 67.3686C758.961 136.827 701.566 164.2 648.782 169.976C601.123 175.192 558.115 162.527 534.391 152.134C463.952 121.274 395.895 41.4991 434.464 -17.1075C467.382 -67.1286 494.573 -55.4812 551.961 -86.7976C553.829 -87.817 555.621 -88.8949 557.396 -89.9683C604.222 -118.051 623.272 -159.209 665.517 -180.069C677.824 -186.147 691.507 -190.84 707.572 -193.112C768.185 -201.685 819.812 -179.342 843.014 -136.221C867.805 -90.1448 860.066 -19.0522 804.012 67.3686Z" stroke="white" stroke-opacity="0.4" stroke-width="1.76499" stroke-miterlimit="10"/>
<path d="M787.646 67.2785C752.171 123.349 706.288 147.081 662.973 152.851C625.514 157.841 590.817 149.116 569.33 140.521C508.532 116.2 453.186 52.1507 473.725 -3.00646C490.625 -48.391 516.282 -48.446 562.178 -75.7981C563.751 -76.7354 565.268 -77.7182 566.784 -78.688C606.379 -103.818 630.733 -135.171 669.729 -150.081C681.397 -154.542 693.726 -157.869 707.375 -159.358C763.641 -165.496 806.452 -145.657 824.565 -108.854C844.367 -68.619 834.572 -6.89235 787.646 67.2785Z" stroke="white" stroke-opacity="0.4" stroke-width="1.76499" stroke-miterlimit="10"/>
<path d="M771.282 67.1834C745.318 109.84 711 129.888 677.166 135.721C649.897 140.422 623.548 135.656 604.273 128.902C553.184 111.003 506.89 61.3173 512.99 11.0895C517.773 -28.2935 537.883 -41.5243 572.399 -64.8034C573.674 -65.6629 574.918 -66.5457 576.176 -67.4125C608.54 -89.5898 638.244 -111.02 673.945 -120.097C684.989 -122.905 695.952 -124.856 707.182 -125.609C759.122 -129.091 793.048 -111.964 806.119 -81.4924C820.878 -47.0828 808.992 5.22958 771.282 67.1834Z" stroke="white" stroke-opacity="0.4" stroke-width="1.76499" stroke-miterlimit="10"/>
<path d="M552.251 25.1888C545.175 -9.79269 560.43 -36.9088 585.564 -56.1337C610.699 -75.3586 645.713 -86.6924 678.157 -90.1096C744.727 -97.1211 778.054 -82.7271 787.67 -54.1274C797.286 -25.5278 783.191 17.2784 754.916 67.0912C726.641 116.904 680.532 128.953 639.212 117.287C597.892 105.621 561.363 70.2393 552.251 25.1888Z" stroke="white" stroke-opacity="0.4" stroke-width="1.76499" stroke-miterlimit="10"/>
</svg>
