<svg width="273" height="265" viewBox="0 0 273 265" fill="none" xmlns="http://www.w3.org/2000/svg">
<path d="M188.1 3.04004C130.501 -120.925 100.539 -168.015 6.4346 -166.045C-27.0893 -165.363 -19.0557 -190.348 -44.6218 -180.874C-70.1374 -171.401 -48.2344 -157.531 -74.3563 -136.083C-147.669 -75.8814 -140.924 -20.2019 -106.92 112.504C-92.5962 168.411 -141.455 171.14 -122.129 225.304C-108.007 264.815 -3.92321 281.362 105.87 240.638C215.688 199.889 284.883 119.022 270.761 79.511C251.435 25.322 212.378 55.2333 188.1 3.04004ZM93.9707 207.241C-4.10007 243.619 -84.6889 222.247 -88.0994 212.723C-93.9604 196.302 -56.4449 141.582 55.6721 99.974C167.789 58.3659 230.365 73.8016 236.909 92.1172C240.774 102.955 192.067 170.837 93.9707 207.241ZM62.4426 118.972C11.184 137.995 -24.4367 159.746 -47.5271 179.325C-31.283 194.079 -0.866379 197.666 29.4239 186.424C68.0004 172.15 91.7223 139.283 82.3498 113.06L81.9456 112.151C75.6046 114.222 69.112 116.471 62.4426 118.972Z" fill="#F2F2F2"/>
</svg>
