<svg width="170" height="79" viewBox="0 0 170 79" fill="none" xmlns="http://www.w3.org/2000/svg">
<path d="M133.917 -30.6475C109.902 -82.334 97.4093 -101.968 58.173 -101.146C44.1954 -100.862 47.545 -111.279 36.8854 -107.329C26.2468 -103.379 35.3791 -97.5967 24.4878 -88.6539C-6.07963 -63.5533 -3.26727 -40.338 10.9105 14.993C16.8828 38.303 -3.48846 39.4406 4.56945 62.0238C10.4575 78.4978 53.8544 85.3971 99.6318 68.4175C145.42 51.4274 174.27 17.7106 168.382 1.23661C160.324 -21.3572 144.04 -8.88583 133.917 -30.6475ZM94.6707 54.4926C53.7807 69.6604 20.1797 60.7493 18.7577 56.7783C16.314 49.9317 31.9558 27.1167 78.7023 9.76852C125.449 -7.5797 151.54 -1.1439 154.268 6.49269C155.879 11.0114 135.571 39.3142 94.6707 54.4926ZM81.5252 17.6895C60.1533 25.621 45.3014 34.6901 35.6741 42.8534C42.4469 49.0048 55.1289 50.5005 67.7583 45.8132C83.8425 39.862 93.7332 26.1582 89.8254 15.2247L89.6568 14.8455C87.013 15.7093 84.306 16.6467 81.5252 17.6895Z" fill="#F2F2F2"/>
</svg>
