<svg width="64" height="64" viewBox="0 0 64 64" fill="none" xmlns="http://www.w3.org/2000/svg">
<rect width="64" height="64" rx="10" fill="#F0FDF4"/>
<path fill-rule="evenodd" clip-rule="evenodd" d="M16 20.2667C16 17.9103 17.9102 16 20.2667 16H37.3333C39.6898 16 41.6 17.9103 41.6 20.2667V30.1781C40.8342 29.9749 40.0298 29.8667 39.2 29.8667C34.0453 29.8667 29.8667 34.0453 29.8667 39.2C29.8667 41.8116 30.9393 44.1726 32.668 45.8667H20.2667C17.9102 45.8667 16 43.9564 16 41.6V20.2667ZM34.6667 29.8667C35.2558 29.8667 35.7333 29.3891 35.7333 28.8C35.7333 28.2109 35.2558 27.7333 34.6667 27.7333H22.9333C22.3442 27.7333 21.8667 28.2109 21.8667 28.8C21.8667 29.3891 22.3442 29.8667 22.9333 29.8667H34.6667ZM35.7333 24.5333C35.7333 25.1225 35.2558 25.6 34.6667 25.6H22.9333C22.3442 25.6 21.8667 25.1225 21.8667 24.5333C21.8667 23.9442 22.3442 23.4667 22.9333 23.4667H34.6667C35.2558 23.4667 35.7333 23.9442 35.7333 24.5333ZM28.2667 34.1333C28.8558 34.1333 29.3333 33.6558 29.3333 33.0667C29.3333 32.4775 28.8558 32 28.2667 32H22.9333C22.3442 32 21.8667 32.4775 21.8667 33.0667C21.8667 33.6558 22.3442 34.1333 22.9333 34.1333H28.2667ZM29.3333 37.3333C29.3333 37.9224 28.8558 38.4 28.2667 38.4H22.9333C22.3442 38.4 21.8667 37.9224 21.8667 37.3333C21.8667 36.7442 22.3442 36.2667 22.9333 36.2667H28.2667C28.8558 36.2667 29.3333 36.7442 29.3333 37.3333Z" fill="#16A34A"/>
<path d="M44.4774 34.1408C41.623 31.2864 36.9951 31.2864 34.1408 34.1408C31.2864 36.9951 31.2864 41.623 34.1408 44.4774C36.7389 47.0755 40.8065 47.3087 43.6685 45.177L46.1791 47.6876C46.5956 48.1042 47.271 48.1042 47.6876 47.6876C48.1042 47.271 48.1042 46.5956 47.6876 46.1791L45.177 43.6685C47.3087 40.8065 47.0755 36.7389 44.4774 34.1408Z" fill="#16A34A"/>
</svg>
