<svg width="61" height="61" viewBox="0 0 61 61" fill="none" xmlns="http://www.w3.org/2000/svg">
<mask id="path-1-inside-1_7254_8972" fill="white">
<path d="M4.39238 45.9691C8.46862 52.7369 15.0276 57.6443 22.6707 59.645C30.3137 61.6456 38.4359 60.581 45.3052 56.6783C52.1745 52.7755 57.2473 46.3435 59.4417 38.7539C61.6362 31.1642 60.7786 23.0175 57.0519 16.0511C53.3252 9.08476 47.0244 3.84998 39.493 1.46315C31.9616 -0.923685 23.7958 -0.273688 16.7368 3.27452C9.67789 6.82274 4.28449 12.9884 1.7068 20.4566C-0.870895 27.9248 -0.428886 36.1045 2.93857 43.2515L4.74789 42.399C1.60278 35.7239 1.18995 28.0842 3.59745 21.1091C6.00494 14.134 11.0422 8.37551 17.6351 5.06157C24.228 1.74764 31.8547 1.14056 38.8888 3.36979C45.9229 5.59903 51.8077 10.4882 55.2883 16.9946C58.7689 23.501 59.5699 31.1098 57.5203 38.1983C55.4708 45.2869 50.733 51.2942 44.3172 54.9392C37.9015 58.5843 30.3156 59.5785 23.1772 57.71C16.0388 55.8415 9.91282 51.2581 6.10571 44.9372L4.39238 45.9691Z"/>
</mask>
<path d="M4.39238 45.9691C8.46862 52.7369 15.0276 57.6443 22.6707 59.645C30.3137 61.6456 38.4359 60.581 45.3052 56.6783C52.1745 52.7755 57.2473 46.3435 59.4417 38.7539C61.6362 31.1642 60.7786 23.0175 57.0519 16.0511C53.3252 9.08476 47.0244 3.84998 39.493 1.46315C31.9616 -0.923685 23.7958 -0.273688 16.7368 3.27452C9.67789 6.82274 4.28449 12.9884 1.7068 20.4566C-0.870895 27.9248 -0.428886 36.1045 2.93857 43.2515L4.74789 42.399C1.60278 35.7239 1.18995 28.0842 3.59745 21.1091C6.00494 14.134 11.0422 8.37551 17.6351 5.06157C24.228 1.74764 31.8547 1.14056 38.8888 3.36979C45.9229 5.59903 51.8077 10.4882 55.2883 16.9946C58.7689 23.501 59.5699 31.1098 57.5203 38.1983C55.4708 45.2869 50.733 51.2942 44.3172 54.9392C37.9015 58.5843 30.3156 59.5785 23.1772 57.71C16.0388 55.8415 9.91282 51.2581 6.10571 44.9372L4.39238 45.9691Z" stroke="#B8B8B8" stroke-width="3.46198" mask="url(#path-1-inside-1_7254_8972)"/>
</svg>
