<svg width="124" height="93" viewBox="0 0 124 93" fill="none" xmlns="http://www.w3.org/2000/svg">
<circle cx="67.4729" cy="51.6243" r="2.55885" fill="#B8B8B8"/>
<circle cx="80.9065" cy="51.6233" r="2.55885" fill="#B8B8B8"/>
<circle cx="94.3401" cy="51.6233" r="2.55885" fill="#B8B8B8"/>
<circle cx="107.774" cy="51.6233" r="2.55885" fill="#B8B8B8"/>
<circle cx="121.207" cy="51.6233" r="2.55885" fill="#B8B8B8"/>
<circle cx="67.4729" cy="64.4182" r="2.55885" fill="#B8B8B8"/>
<circle cx="80.9065" cy="64.4182" r="2.55885" fill="#B8B8B8"/>
<circle cx="94.3401" cy="64.4182" r="2.55885" fill="#B8B8B8"/>
<circle cx="107.774" cy="64.4182" r="2.55885" fill="#B8B8B8"/>
<circle cx="121.207" cy="64.4182" r="2.55885" fill="#B8B8B8"/>
<circle cx="67.4729" cy="77.2122" r="2.55885" fill="#B8B8B8"/>
<circle cx="80.9065" cy="77.2122" r="2.55885" fill="#B8B8B8"/>
<circle cx="94.3401" cy="77.2122" r="2.55885" fill="#B8B8B8"/>
<circle cx="107.774" cy="77.2122" r="2.55885" fill="#B8B8B8"/>
<circle cx="121.207" cy="77.2122" r="2.55885" fill="#B8B8B8"/>
<circle cx="67.4729" cy="90.0061" r="2.55885" fill="#B8B8B8"/>
<circle cx="80.9065" cy="90.0061" r="2.55885" fill="#B8B8B8"/>
<circle cx="94.3401" cy="90.0061" r="2.55885" fill="#B8B8B8"/>
<circle cx="107.774" cy="90.0061" r="2.55885" fill="#B8B8B8"/>
<circle cx="121.207" cy="90.0061" r="2.55885" fill="#B8B8B8"/>
<circle cx="67.5589" cy="2.55983" r="2.55885" fill="#B8B8B8"/>
<circle cx="80.9924" cy="2.55885" r="2.55885" fill="#B8B8B8"/>
<circle cx="94.426" cy="2.55885" r="2.55885" fill="#B8B8B8"/>
<circle cx="107.86" cy="2.55885" r="2.55885" fill="#B8B8B8"/>
<circle cx="121.293" cy="2.55885" r="2.55885" fill="#B8B8B8"/>
<circle cx="67.5589" cy="15.3538" r="2.55885" fill="#B8B8B8"/>
<circle cx="80.9924" cy="15.3538" r="2.55885" fill="#B8B8B8"/>
<circle cx="94.426" cy="15.3538" r="2.55885" fill="#B8B8B8"/>
<circle cx="107.86" cy="15.3538" r="2.55885" fill="#B8B8B8"/>
<circle cx="121.293" cy="15.3538" r="2.55885" fill="#B8B8B8"/>
<circle cx="67.5589" cy="28.1477" r="2.55885" fill="#B8B8B8"/>
<circle cx="80.9924" cy="28.1477" r="2.55885" fill="#B8B8B8"/>
<circle cx="94.426" cy="28.1477" r="2.55885" fill="#B8B8B8"/>
<circle cx="107.86" cy="28.1477" r="2.55885" fill="#B8B8B8"/>
<circle cx="121.293" cy="28.1477" r="2.55885" fill="#B8B8B8"/>
<circle cx="67.5589" cy="40.9417" r="2.55885" fill="#B8B8B8"/>
<circle cx="80.9924" cy="40.9417" r="2.55885" fill="#B8B8B8"/>
<circle cx="94.426" cy="40.9417" r="2.55885" fill="#B8B8B8"/>
<circle cx="107.86" cy="40.9417" r="2.55885" fill="#B8B8B8"/>
<circle cx="121.293" cy="40.9417" r="2.55885" fill="#B8B8B8"/>
<circle cx="2.55885" cy="51.5598" r="2.55885" fill="white"/>
<circle cx="15.9924" cy="51.5588" r="2.55885" fill="#B8B8B8"/>
<circle cx="29.426" cy="51.5588" r="2.55885" fill="#B8B8B8"/>
<circle cx="42.8596" cy="51.5588" r="2.55885" fill="#B8B8B8"/>
<circle cx="56.2932" cy="51.5588" r="2.55885" fill="#B8B8B8"/>
<circle cx="2.55885" cy="64.3538" r="2.55885" fill="white"/>
<circle cx="15.9924" cy="64.3538" r="2.55885" fill="#B8B8B8"/>
<circle cx="29.426" cy="64.3538" r="2.55885" fill="#B8B8B8"/>
<circle cx="42.8596" cy="64.3538" r="2.55885" fill="#B8B8B8"/>
<circle cx="56.2932" cy="64.3538" r="2.55885" fill="#B8B8B8"/>
<circle cx="2.55885" cy="77.1477" r="2.55885" fill="white"/>
<circle cx="15.9924" cy="77.1477" r="2.55885" fill="#B8B8B8"/>
<circle cx="29.426" cy="77.1477" r="2.55885" fill="#B8B8B8"/>
<circle cx="42.8596" cy="77.1477" r="2.55885" fill="#B8B8B8"/>
<circle cx="56.2932" cy="77.1477" r="2.55885" fill="#B8B8B8"/>
<circle cx="2.55885" cy="89.9417" r="2.55885" fill="white"/>
<circle cx="15.9924" cy="89.9417" r="2.55885" fill="#B8B8B8"/>
<circle cx="29.426" cy="89.9417" r="2.55885" fill="#B8B8B8"/>
<circle cx="42.8596" cy="89.9417" r="2.55885" fill="#B8B8B8"/>
<circle cx="56.2932" cy="89.9417" r="2.55885" fill="#B8B8B8"/>
<circle cx="2.55885" cy="2.55983" r="2.55885" fill="white"/>
<circle cx="15.9924" cy="2.55885" r="2.55885" fill="#B8B8B8"/>
<circle cx="29.426" cy="2.55885" r="2.55885" fill="#B8B8B8"/>
<circle cx="42.8596" cy="2.55885" r="2.55885" fill="#B8B8B8"/>
<circle cx="56.2932" cy="2.55885" r="2.55885" fill="#B8B8B8"/>
<circle cx="2.55885" cy="15.3538" r="2.55885" fill="white"/>
<circle cx="15.9924" cy="15.3538" r="2.55885" fill="#B8B8B8"/>
<circle cx="29.426" cy="15.3538" r="2.55885" fill="#B8B8B8"/>
<circle cx="42.8596" cy="15.3538" r="2.55885" fill="#B8B8B8"/>
<circle cx="56.2932" cy="15.3538" r="2.55885" fill="#B8B8B8"/>
<circle cx="2.55885" cy="28.1477" r="2.55885" fill="white"/>
<circle cx="15.9924" cy="28.1477" r="2.55885" fill="#B8B8B8"/>
<circle cx="29.426" cy="28.1477" r="2.55885" fill="#B8B8B8"/>
<circle cx="42.8596" cy="28.1477" r="2.55885" fill="#B8B8B8"/>
<circle cx="56.2932" cy="28.1477" r="2.55885" fill="#B8B8B8"/>
<circle cx="2.55885" cy="40.9417" r="2.55885" fill="white"/>
<circle cx="15.9924" cy="40.9417" r="2.55885" fill="#B8B8B8"/>
<circle cx="29.426" cy="40.9417" r="2.55885" fill="#B8B8B8"/>
<circle cx="42.8596" cy="40.9417" r="2.55885" fill="#B8B8B8"/>
<circle cx="56.2932" cy="40.9417" r="2.55885" fill="#B8B8B8"/>
</svg>
