<svg width="724" height="723" viewBox="0 0 724 723" fill="none" xmlns="http://www.w3.org/2000/svg">
<g clip-path="url(#clip0_7211_11436)">
<path d="M588.131 255.89C651.042 245.881 696.885 282.194 703.182 396.026C707.869 480.744 663.725 564.358 593.182 603.441C499.452 655.369 359.721 639.229 313.696 554.846C286.233 504.495 290.002 425.931 328.205 394.368C366.503 362.731 409.232 416.711 479.03 386.659C556.638 353.246 537.395 263.963 588.131 255.89Z" fill="white"/>
<path d="M473.718 634.065C450.864 634.065 428.178 631.035 406.857 624.833C363.332 612.176 330.853 588.121 312.935 555.264C299.455 530.55 293.084 498.557 295.461 467.496C297.91 435.475 309.643 408.576 327.656 393.698C346.485 378.141 366.442 382.931 389.554 388.482C414.545 394.483 442.872 401.285 478.694 385.862C520.078 368.045 533.499 334.719 545.338 305.318C555.38 280.379 564.053 258.846 588.004 255.034C616.528 250.497 640.274 255.693 658.583 270.477C685.349 292.089 700.65 334.316 704.06 395.982C708.779 481.312 664.394 564.993 593.61 604.21C558.191 623.834 515.694 634.065 473.726 634.069L473.718 634.065ZM357.386 384.943C347.349 384.943 337.879 387.508 328.76 395.039C311.113 409.617 299.609 436.075 297.196 467.626C294.846 498.36 301.139 529.998 314.464 554.424C332.158 586.862 364.274 610.629 407.342 623.152C467.395 640.614 538.443 632.767 592.759 602.675C662.967 563.774 706.993 480.748 702.309 396.073C698.927 334.92 683.843 293.119 657.479 271.83C639.568 257.37 616.28 252.296 588.272 256.755C565.295 260.412 556.795 281.52 546.951 305.965C534.985 335.681 521.423 369.359 479.376 387.464C443.018 403.119 414.395 396.243 389.14 390.179C377.86 387.472 367.345 384.947 357.39 384.947L357.386 384.943Z" fill="#22C55E" fill-opacity="0.09"/>
<path d="M586.836 497.784C586.489 497.784 586.162 497.575 586.024 497.232C576.932 474.42 546.346 469.962 546.039 469.918C545.562 469.851 545.227 469.413 545.294 468.932C545.357 468.455 545.798 468.119 546.275 468.186C546.595 468.23 578.178 472.818 587.644 496.585C587.822 497.035 587.605 497.54 587.155 497.721C587.049 497.765 586.938 497.784 586.832 497.784H586.836Z" fill="#22C55E" fill-opacity="0.09"/>
<path d="M543.851 512.386C543.819 512.386 543.792 512.386 543.76 512.382C543.279 512.335 542.932 511.905 542.98 511.424C545.247 489.267 532.745 474.708 532.619 474.562C532.299 474.199 532.339 473.647 532.702 473.327C533.064 473.008 533.616 473.043 533.936 473.41C534.066 473.56 547.064 488.694 544.718 511.601C544.671 512.051 544.293 512.386 543.851 512.386Z" fill="#22C55E" fill-opacity="0.09"/>
<path d="M415.432 596.1C413.457 594.099 402.036 558.552 402.036 558.552L379.473 574.665L404.212 607.936L415.432 596.104V596.1Z" fill="white"/>
<path d="M404.21 608.807C404.21 608.807 404.175 608.807 404.159 608.807C403.903 608.791 403.666 608.665 403.509 608.456L378.769 575.185C378.631 574.995 378.572 574.759 378.608 574.526C378.643 574.293 378.773 574.088 378.963 573.95L401.526 557.837C401.754 557.675 402.042 557.632 402.306 557.719C402.57 557.805 402.779 558.015 402.862 558.279C407.226 571.863 414.666 593.973 416.05 595.484C416.361 595.823 416.377 596.363 416.062 596.699L404.841 608.531C404.676 608.704 404.447 608.803 404.207 608.803L404.21 608.807ZM380.705 574.857L404.293 606.578L414.335 595.989C411.741 591.219 403.95 567.33 401.573 559.956L380.705 574.853V574.857Z" fill="#22C55E" fill-opacity="0.09"/>
<path d="M374.768 641.048L389.774 640.957C399.701 640.898 408.934 635.852 414.351 627.523L429.187 604.013C433.287 597.515 430.993 588.91 424.211 585.304C418.018 582.01 411.528 578.802 410.01 578.948C406.924 579.244 405.678 593.858 405.678 593.858L392.309 594.374C392.309 594.374 385.705 621.858 379.894 624.983C375.659 627.259 372.702 630.601 370.715 633.651C368.634 636.846 370.956 641.072 374.768 641.052V641.048Z" fill="#22C55E" fill-opacity="0.09"/>
<path d="M376.279 636.057C375.854 636.057 375.483 635.746 375.416 635.312C375.345 634.834 375.672 634.388 376.149 634.317L396.674 631.224C401.034 630.565 404.839 628.017 407.102 624.229L425.237 593.909C425.486 593.495 426.022 593.361 426.436 593.609C426.85 593.858 426.984 594.394 426.736 594.809L408.6 625.129C406.065 629.366 401.811 632.218 396.93 632.952L376.405 636.045C376.362 636.053 376.315 636.057 376.275 636.057H376.279Z" fill="white"/>
<path d="M401.616 613.257C401.541 613.257 401.462 613.245 401.388 613.226L389.95 610.109C389.485 609.983 389.209 609.501 389.335 609.036C389.461 608.57 389.942 608.294 390.408 608.42L401.845 611.537C402.31 611.663 402.586 612.145 402.46 612.61C402.353 613.001 402.003 613.253 401.616 613.253V613.257Z" fill="white"/>
<path d="M395.658 619.132C395.587 619.132 395.52 619.124 395.449 619.108L387.781 617.23C387.312 617.116 387.024 616.642 387.138 616.173C387.253 615.703 387.734 615.419 388.195 615.53L395.863 617.408C396.332 617.522 396.62 617.996 396.506 618.465C396.407 618.864 396.052 619.132 395.658 619.132Z" fill="white"/>
<path d="M338.435 589.316L312.237 615.659L298.352 610.554L322.499 576.853L338.435 589.316Z" fill="white"/>
<path d="M312.236 616.531C312.134 616.531 312.035 616.516 311.937 616.476L298.047 611.371C297.791 611.276 297.594 611.067 297.515 610.807C297.436 610.546 297.479 610.262 297.641 610.041L321.793 576.34C321.931 576.147 322.144 576.016 322.376 575.985C322.617 575.949 322.849 576.016 323.039 576.162L338.974 588.626C339.171 588.78 339.294 589.013 339.309 589.261C339.325 589.51 339.235 589.754 339.057 589.932L312.859 616.271C312.694 616.441 312.469 616.527 312.24 616.527L312.236 616.531ZM299.727 610.128L312.011 614.642L337.121 589.395L322.68 578.1L299.731 610.124L299.727 610.128Z" fill="#22C55E" fill-opacity="0.09"/>
<path d="M320.518 611.536C320.518 611.536 321.784 622.741 319.635 632.644C318.492 637.923 313.737 641.632 308.344 641.632H244.049C239.452 641.632 237.371 635.891 240.891 632.936C252.325 623.353 273.354 608.715 299.209 604.419L306.42 614.519L320.514 611.532L320.518 611.536Z" fill="#22C55E" fill-opacity="0.09"/>
<path d="M313.738 633.662H247.106C246.625 633.662 246.23 633.271 246.23 632.786C246.23 632.301 246.621 631.91 247.106 631.91H313.738C314.219 631.91 314.613 632.301 314.613 632.786C314.613 633.271 314.223 633.662 313.738 633.662Z" fill="white"/>
<path d="M284.283 621.818C283.94 621.818 283.612 621.613 283.474 621.278L279.946 612.716C279.761 612.27 279.973 611.758 280.419 611.576C280.864 611.395 281.377 611.604 281.558 612.05L285.087 620.611C285.272 621.057 285.059 621.57 284.614 621.751C284.507 621.795 284.393 621.818 284.283 621.818Z" fill="white"/>
<path d="M272.686 624.066C272.319 624.066 271.976 623.834 271.858 623.467L269.307 615.742C269.153 615.284 269.405 614.791 269.863 614.637C270.32 614.483 270.813 614.736 270.967 615.193L273.517 622.918C273.667 623.376 273.419 623.869 272.962 624.023C272.871 624.055 272.776 624.066 272.69 624.066H272.686Z" fill="white"/>
<path d="M477.109 404.994C477.109 404.994 357.379 391.047 321.778 421.888C286.177 452.729 377.978 585.352 377.978 585.352L407.011 563.807L379.472 470.069L490.151 438.617L477.109 404.994Z" fill="#22C55E" fill-opacity="0.09"/>
<path d="M543 466.036C525.609 471.56 494.491 478.701 450.997 478.109C438.641 477.939 427.232 484.773 421.617 495.792C408.733 521.074 380.852 566.595 335.43 596.103L313.738 584.405L369.103 459.684C374.157 448.298 383.612 439.444 395.301 435.156L505.029 394.889C505.029 394.889 539.053 385.373 555.734 415.768C558.715 421.197 564.246 411.492 565.563 415.871C570.081 430.887 557.934 461.294 542.996 466.036H543Z" fill="#22C55E" fill-opacity="0.09"/>
<path d="M344.084 516.916C343.966 516.916 343.843 516.892 343.729 516.841C343.287 516.643 343.09 516.127 343.287 515.689L368.307 459.329C373.428 447.793 383.158 438.683 395.001 434.335L447.551 415.05C448.009 414.885 448.505 415.118 448.671 415.571C448.836 416.025 448.604 416.526 448.15 416.692L395.601 435.977C384.199 440.163 374.831 448.929 369.899 460.039L344.88 516.399C344.734 516.726 344.415 516.92 344.08 516.92L344.084 516.916Z" fill="white"/>
<path d="M373.297 565.369C373.08 565.369 372.859 565.286 372.69 565.124C372.343 564.789 372.331 564.237 372.666 563.889C377.665 558.689 382.581 553.099 387.285 547.283C387.588 546.909 388.136 546.85 388.511 547.153C388.886 547.457 388.945 548.006 388.641 548.384C383.906 554.239 378.954 559.865 373.924 565.105C373.754 565.282 373.525 565.373 373.293 565.373L373.297 565.369Z" fill="white"/>
<path d="M387.966 548.707C387.773 548.707 387.58 548.644 387.418 548.514C387.043 548.21 386.984 547.662 387.288 547.283C389.61 544.411 391.912 541.444 394.132 538.457C394.42 538.07 394.968 537.988 395.354 538.28C395.741 538.568 395.82 539.116 395.532 539.503C393.296 542.505 390.982 545.496 388.644 548.384C388.471 548.597 388.218 548.707 387.966 548.707Z" fill="white"/>
<path d="M449.904 308.217C449.904 308.217 439.373 403.908 368.66 410.169L449.904 411.325C449.904 411.325 479.985 350.322 481.207 326.571C482.429 302.82 449.904 308.217 449.904 308.217Z" fill="white"/>
<path d="M449.904 412.198H449.893L368.649 411.042C368.184 411.034 367.805 410.667 367.79 410.201C367.774 409.736 368.121 409.341 368.586 409.298C404.699 406.102 424.641 378.808 435.01 356.477C446.289 332.182 449.013 308.36 449.037 308.123C449.08 307.733 449.376 307.421 449.762 307.358C450.496 307.235 467.851 304.466 476.887 312.538C480.64 315.892 482.387 320.63 482.079 326.615C480.861 350.275 451.919 409.211 450.685 411.708C450.539 412.008 450.236 412.194 449.9 412.194L449.904 412.198ZM378.911 409.44L449.36 410.442C452.219 404.579 479.193 348.701 480.333 326.524C480.613 321.092 479.059 316.827 475.724 313.84C468.245 307.153 453.886 308.573 450.685 308.987C450.153 313.071 446.92 334.959 436.587 357.211C423.237 385.957 403.434 403.826 378.907 409.44H378.911Z" fill="#22C55E" fill-opacity="0.09"/>
<path d="M550.546 247.405C536.826 244.177 531.105 244.134 481.24 245.941C469.054 246.383 455.492 265.475 454.061 277.595C457.936 289.222 474.873 342.831 443.664 387.678C439.237 394.042 433.217 401.021 424.949 407.708C429.594 411.468 436.808 416.357 446.499 419.237C462.588 424.019 470.678 418.85 483.641 419.237C517.937 420.259 530.514 458.485 552.663 453.684C558.577 452.401 566.419 447.785 573.767 432.3C577.935 419.458 581.641 404.379 583.703 387.339C589.297 341.142 580.142 302.679 571.966 278.538C569.537 270.915 566.718 251.208 550.546 247.405Z" fill="white"/>
<path d="M548.788 454.982C539.685 454.982 532.123 448.227 523.54 440.557C513.088 431.219 501.245 420.637 483.618 420.113C479.021 419.974 474.964 420.558 471.045 421.126C464.004 422.14 456.722 423.19 446.251 420.077C438.484 417.769 431.131 413.835 424.401 408.391C424.196 408.225 424.078 407.977 424.078 407.712C424.078 407.448 424.196 407.199 424.401 407.034C431.593 401.214 437.83 394.535 442.947 387.181C471.455 346.216 459.636 297.092 453.229 277.875C453.19 277.752 453.174 277.622 453.19 277.496C454.593 265.612 468.27 245.538 481.205 245.073C531.89 243.234 537.09 243.345 550.743 246.556C565.181 249.953 569.285 265.328 571.737 274.513C572.128 275.973 572.463 277.235 572.794 278.273C585.012 314.33 588.974 351.065 584.566 387.445C582.721 402.674 579.366 417.856 574.592 432.572C574.58 432.607 574.568 432.643 574.548 432.678C568.524 445.371 561.223 452.725 552.841 454.544C551.449 454.843 550.097 454.986 548.776 454.986L548.788 454.982ZM482.246 418.345C482.715 418.345 483.192 418.353 483.673 418.365C501.935 418.909 514.031 429.719 524.707 439.255C534.181 447.718 542.358 455.025 552.486 452.831C560.3 451.139 567.188 444.12 572.959 431.976C577.69 417.386 581.014 402.331 582.843 387.232C587.219 351.112 583.281 314.637 571.146 278.817C570.799 277.725 570.456 276.446 570.062 274.963C567.708 266.153 563.769 251.413 550.353 248.253C536.913 245.093 531.748 244.982 481.28 246.813C469.212 247.251 456.419 266.157 454.96 277.504C461.461 297.1 473.257 346.693 444.39 388.175C439.379 395.375 433.315 401.936 426.349 407.696C432.669 412.652 439.533 416.25 446.755 418.396C456.864 421.399 463.633 420.424 470.805 419.39C474.393 418.874 478.095 418.341 482.254 418.341L482.246 418.345Z" fill="#22C55E" fill-opacity="0.09"/>
<path d="M440.613 318.942C440.613 318.942 454.077 252.305 477.314 246.781L466.579 333.828L440.613 318.942Z" fill="white"/>
<path d="M466.577 334.7C466.427 334.7 466.277 334.66 466.143 334.585L440.178 319.699C439.85 319.514 439.681 319.135 439.756 318.768C440.312 316.026 453.602 251.52 477.111 245.929C477.584 245.815 478.049 246.107 478.164 246.576C478.274 247.046 477.986 247.515 477.517 247.63C456.255 252.684 443.032 311.781 441.597 318.5L465.875 332.415L467.641 318.09C467.7 317.612 468.142 317.273 468.615 317.328C469.096 317.387 469.435 317.825 469.376 318.303L467.448 333.93C467.413 334.222 467.235 334.475 466.971 334.605C466.849 334.668 466.715 334.696 466.581 334.696L466.577 334.7Z" fill="#22C55E" fill-opacity="0.09"/>
<path d="M509.632 215.514L507.976 238.559C507.609 241.557 505.453 244.027 502.531 244.789L494.441 246.899L499.689 250.9C511.323 259.765 527.44 261.584 539.094 252.738L547.401 246.698L537.352 244.185C534.466 243.538 532.246 239.423 531.718 236.511L527.279 206.018L509.628 215.518L509.632 215.514Z" fill="white"/>
<path d="M521.41 259.453C513.856 259.453 506.015 256.814 499.166 251.594L493.919 247.594C493.655 247.393 493.525 247.053 493.592 246.726C493.659 246.398 493.903 246.138 494.226 246.051L502.316 243.94C504.907 243.266 506.791 241.111 507.114 238.452L508.766 215.451C508.786 215.151 508.96 214.887 509.224 214.745L526.874 205.244C527.127 205.11 527.426 205.106 527.679 205.232C527.935 205.359 528.108 205.603 528.152 205.887L532.591 236.381C533.048 238.914 535.027 242.765 537.551 243.329L547.62 245.846C547.947 245.929 548.199 246.193 548.266 246.528C548.334 246.864 548.196 247.203 547.923 247.4L539.621 253.441C534.326 257.461 527.982 259.45 521.418 259.45L521.41 259.453ZM496.403 247.29L500.223 250.202C512.394 259.473 527.805 260.211 538.572 252.036L545.377 247.085L537.145 245.025C533.723 244.26 531.408 239.671 530.864 236.657L526.598 207.371L510.47 216.051L508.849 238.618C508.435 242.039 506.042 244.773 502.754 245.629L496.403 247.286V247.29Z" fill="#22C55E" fill-opacity="0.09"/>
<path d="M483.468 183.439C489.004 180.507 484.549 189.637 502.755 173.867C510.005 167.586 510.266 179.312 512.154 177.686C519.117 171.689 518.872 171.887 523.268 171.121C526.178 170.616 530.069 174.633 531.224 178.432C532.75 183.451 529.418 186.453 530.554 198.009C531.354 206.124 533.905 210.113 531.567 212.417C529.206 214.749 525.358 211.897 522.582 214.248C518.994 217.29 523.091 224.06 520.437 228.858C518.766 231.884 513.278 235.442 501.734 235.166C499.861 235.123 498.28 233.742 497.973 231.888C497.583 229.513 497.106 226.506 496.889 223.598C495.856 209.742 498.836 205.138 495.899 202.771C491.401 199.141 483.756 205.9 480.512 202.716C477.141 199.406 475.883 187.447 483.461 183.435L483.468 183.439Z" fill="#22C55E" fill-opacity="0.09"/>
<path d="M511.012 191.21L510.784 194.993C510.677 196.777 510.689 198.564 510.827 200.347C511.087 203.689 511.49 209.441 511.47 212.677C511.442 217.431 496.752 218.362 496.752 218.362L494.888 216.286L493.165 216.358C492.83 216.373 492.491 216.318 492.195 216.16C491.454 215.774 491.083 214.977 491.213 214.211C491.907 210.009 493.125 200.738 491.777 193.53C491.777 193.53 499.946 186.894 511.012 191.21Z" fill="white"/>
<path d="M496.751 219.235C496.502 219.235 496.266 219.128 496.1 218.947L494.512 217.179L493.199 217.234C492.686 217.258 492.197 217.155 491.787 216.942C490.731 216.39 490.155 215.238 490.344 214.074C490.963 210.342 492.252 200.881 490.912 193.696C490.853 193.381 490.971 193.061 491.219 192.856C491.566 192.572 499.913 185.952 511.322 190.398C511.677 190.536 511.898 190.887 511.878 191.266L511.65 195.05C511.543 196.789 511.559 198.549 511.693 200.281C511.941 203.504 512.355 209.399 512.336 212.685C512.304 217.988 499.388 219.073 496.802 219.235C496.782 219.235 496.763 219.235 496.747 219.235H496.751ZM494.886 215.411C495.134 215.411 495.371 215.518 495.537 215.699L497.114 217.459C502.842 217.037 510.573 215.321 510.593 212.669C510.613 209.446 510.203 203.607 509.954 200.411C509.812 198.596 509.797 196.758 509.911 194.939L510.1 191.799C501.174 188.611 494.429 192.71 492.73 193.905C493.92 201.003 492.836 209.718 492.071 214.35C492 214.768 492.213 215.183 492.595 215.384C492.733 215.455 492.915 215.49 493.124 215.483L494.847 215.411C494.847 215.411 494.87 215.411 494.882 215.411H494.886Z" fill="#22C55E" fill-opacity="0.09"/>
<path d="M513.594 202.873C513.594 202.873 514.134 193.771 518.214 194.919C522.291 196.072 521.443 206.073 513.594 202.873Z" fill="white"/>
<path d="M473.62 419.296H313.092C309.256 419.296 306.141 416.179 306.141 412.34V409.926H480.57V412.34C480.57 416.179 477.456 419.296 473.62 419.296Z" fill="white"/>
<path d="M473.619 420.168H313.091C308.778 420.168 305.27 416.656 305.27 412.336V409.922C305.27 409.44 305.66 409.046 306.145 409.046H480.574C481.055 409.046 481.449 409.436 481.449 409.922V412.336C481.449 416.653 477.94 420.168 473.623 420.168H473.619ZM307.016 410.798V412.34C307.016 415.694 309.744 418.424 313.091 418.424H473.619C476.97 418.424 479.698 415.694 479.698 412.34V410.798H307.016Z" fill="#22C55E" fill-opacity="0.09"/>
<path d="M306.139 410.092H405.948L374.238 316.681C372.342 313.758 369.034 311.986 365.482 311.986H281.112C277.284 311.986 274.82 315.703 276.07 318.985C276.567 320.291 277.103 321.581 277.536 322.907L306.143 410.092H306.139Z" fill="white"/>
<path d="M405.947 410.967H306.138C305.76 410.967 305.424 410.727 305.31 410.368L276.703 323.179C276.4 322.252 276.033 321.317 275.682 320.413C275.536 320.043 275.39 319.668 275.248 319.297C274.558 317.482 274.815 315.427 275.938 313.797C277.113 312.093 278.998 311.114 281.107 311.114H365.477C369.348 311.114 372.897 313.02 374.967 316.208C375.006 316.267 375.037 316.334 375.061 316.401L406.771 409.811C406.861 410.08 406.818 410.372 406.652 410.6C406.487 410.829 406.223 410.967 405.943 410.967H405.947ZM306.769 409.219H404.725L373.441 317.068C371.686 314.432 368.714 312.858 365.473 312.858H281.103C279.573 312.858 278.213 313.56 277.373 314.783C276.577 315.939 276.392 317.395 276.877 318.67C277.015 319.037 277.161 319.403 277.302 319.774C277.665 320.701 278.04 321.66 278.359 322.631L306.769 409.216V409.219Z" fill="#22C55E" fill-opacity="0.09"/>
<path d="M343.179 359.781C344.369 363.73 342.552 367.77 339.118 368.808C335.688 369.846 331.942 367.482 330.752 363.533C329.561 359.584 331.379 355.544 334.813 354.506C338.243 353.468 341.988 355.832 343.179 359.781Z" fill="#22C55E" fill-opacity="0.09"/>
<path d="M582.583 336.084C582.583 336.084 577.687 398.141 563.833 421.639C547.286 449.699 463.815 411.906 463.815 411.906L454.108 406.406C447.54 402.686 439.718 401.889 432.535 404.209L416.855 409.271C416.855 409.271 429.807 393.73 440.818 387.788C445.983 385.003 452.677 387.638 458.331 391.221C468.061 397.387 479.502 400.279 491.014 399.936L524.218 398.95C529.793 398.784 534.362 394.468 534.847 388.905L539.85 319.104L582.583 336.084Z" fill="white"/>
<path d="M538.533 432.923C508.59 432.923 465.932 413.824 463.456 412.703L453.679 407.168C447.343 403.578 439.734 402.8 432.803 405.041L417.12 410.103C416.753 410.222 416.347 410.084 416.126 409.76C415.909 409.437 415.929 409.01 416.181 408.711C416.713 408.071 429.365 392.973 440.4 387.019C445.037 384.518 451.226 385.686 458.796 390.483C468.199 396.445 479.321 399.404 490.987 399.064L524.19 398.078C529.324 397.924 533.526 393.951 533.976 388.834L538.979 319.045C538.999 318.768 539.148 318.516 539.385 318.366C539.621 318.216 539.913 318.192 540.169 318.295L582.902 335.276C583.257 335.418 583.482 335.773 583.45 336.156C583.249 338.696 578.38 398.686 564.582 422.085C559.894 430.035 550.172 432.923 538.529 432.923H538.533ZM440.798 402.035C445.569 402.035 450.316 403.254 454.534 405.645L464.241 411.145C464.997 411.484 547.112 448.263 563.075 421.194C575.92 399.411 581.081 343.305 581.653 336.657L540.627 320.354L535.71 388.968C535.186 394.985 530.254 399.644 524.238 399.822L491.034 400.808C479.013 401.167 467.556 398.106 457.858 391.959C453.048 388.909 446.255 385.843 441.228 388.558C433.047 392.969 423.644 402.915 419.576 407.472L432.263 403.377C435.042 402.477 437.924 402.035 440.798 402.035Z" fill="#22C55E" fill-opacity="0.09"/>
<path d="M590.343 340.472C590.343 340.472 595.57 300.481 589.806 286.4C576.359 253.551 555.802 248.947 552.514 247.965L533.562 329.164L590.343 340.468V340.472Z" fill="white"/>
<path d="M590.343 341.348C590.288 341.348 590.228 341.344 590.173 341.333L533.393 330.029C533.16 329.982 532.959 329.844 532.829 329.646C532.703 329.449 532.66 329.205 532.715 328.976L536.583 312.397C536.693 311.928 537.162 311.636 537.631 311.746C538.1 311.857 538.392 312.326 538.282 312.796L534.619 328.494L589.594 339.439C590.323 333.371 594.131 299.267 588.998 286.741C583.183 272.529 572.172 254.44 552.747 248.952L552.262 248.814C551.801 248.676 551.537 248.191 551.675 247.729C551.813 247.267 552.294 247.003 552.763 247.141L553.224 247.271C569.132 251.765 582.063 265.183 590.615 286.078C596.402 300.214 591.423 338.953 591.21 340.595C591.179 340.835 591.048 341.052 590.855 341.191C590.705 341.297 590.528 341.352 590.347 341.352L590.343 341.348Z" fill="#22C55E" fill-opacity="0.09"/>
<path d="M302.288 711.568C284.618 711.568 267.685 708.661 251.776 702.885C251.323 702.719 251.087 702.218 251.252 701.764C251.418 701.31 251.918 701.074 252.372 701.239C272.628 708.598 294.576 711.241 317.605 709.099C325.983 708.317 334.38 707.394 342.561 706.345C343.042 706.286 343.475 706.621 343.539 707.102C343.598 707.58 343.263 708.018 342.782 708.081C334.581 709.13 326.164 710.057 317.766 710.839C312.55 711.324 307.386 711.564 302.288 711.564V711.568Z" fill="#22C55E" fill-opacity="0.09"/>
<path d="M21.5748 428.884C17.5613 428.884 14.2969 425.617 14.2969 421.601C14.2969 417.584 17.5613 414.317 21.5748 414.317C25.5882 414.317 28.8526 417.584 28.8526 421.601C28.8526 425.617 25.5882 428.884 21.5748 428.884ZM21.5748 416.069C18.5233 416.069 16.0434 418.551 16.0434 421.604C16.0434 424.658 18.5233 427.14 21.5748 427.14C24.6263 427.14 27.1061 424.658 27.1061 421.604C27.1061 418.551 24.6263 416.069 21.5748 416.069Z" fill="#22C55E" fill-opacity="0.09"/>
<path d="M29.2971 389.793C28.8161 389.793 28.4219 389.403 28.4219 388.918V382.139C28.4219 381.658 28.8122 381.268 29.2971 381.268C29.782 381.268 30.1724 381.658 30.1724 382.139V388.918C30.1724 389.399 29.782 389.793 29.2971 389.793Z" fill="#22C55E" fill-opacity="0.09"/>
<path d="M29.2971 405.579C28.8161 405.579 28.4219 405.188 28.4219 404.703V397.925C28.4219 397.443 28.8122 397.049 29.2971 397.049C29.782 397.049 30.1724 397.439 30.1724 397.925V404.703C30.1724 405.184 29.782 405.579 29.2971 405.579Z" fill="#22C55E" fill-opacity="0.09"/>
<path d="M24.7969 394.3H18.0237C17.5427 394.3 17.1484 393.909 17.1484 393.428C17.1484 392.946 17.5387 392.552 18.0237 392.552H24.7969C25.2779 392.552 25.6722 392.942 25.6722 393.428C25.6722 393.913 25.2819 394.3 24.7969 394.3Z" fill="#22C55E" fill-opacity="0.09"/>
<path d="M40.5782 394.299H33.8049C33.3239 394.299 32.9297 393.908 32.9297 393.427C32.9297 392.945 33.32 392.551 33.8049 392.551H40.5782C41.0592 392.551 41.4534 392.941 41.4534 393.427C41.4534 393.912 41.0631 394.299 40.5782 394.299Z" fill="#22C55E" fill-opacity="0.09"/>
<path d="M623.225 139.274C622.854 139.274 622.511 139.037 622.393 138.667L621.127 134.721C620.981 134.264 621.234 133.77 621.691 133.62C622.148 133.475 622.641 133.727 622.791 134.185L624.057 138.13C624.202 138.588 623.95 139.081 623.493 139.231C623.402 139.258 623.315 139.274 623.225 139.274Z" fill="#22C55E" fill-opacity="0.09"/>
<path d="M627.651 153.08C627.28 153.08 626.937 152.843 626.819 152.472L625.553 148.527C625.407 148.069 625.66 147.576 626.117 147.426C626.574 147.28 627.067 147.533 627.217 147.99L628.482 151.936C628.628 152.393 628.376 152.887 627.919 153.036C627.828 153.064 627.741 153.08 627.651 153.08Z" fill="#22C55E" fill-opacity="0.09"/>
<path d="M615.936 147.063C615.565 147.063 615.222 146.826 615.104 146.455C614.958 145.998 615.21 145.505 615.668 145.355L619.61 144.084C620.067 143.934 620.56 144.187 620.71 144.648C620.856 145.106 620.604 145.599 620.146 145.749L616.204 147.02C616.113 147.047 616.026 147.063 615.936 147.063Z" fill="#22C55E" fill-opacity="0.09"/>
<path d="M629.729 142.616C629.358 142.616 629.015 142.379 628.897 142.008C628.751 141.55 629.003 141.057 629.461 140.907L633.403 139.637C633.86 139.487 634.353 139.74 634.503 140.201C634.649 140.659 634.397 141.152 633.939 141.302L629.997 142.572C629.91 142.6 629.819 142.616 629.729 142.616Z" fill="#22C55E" fill-opacity="0.09"/>
<path d="M577.783 100.574C577.586 100.574 577.385 100.507 577.22 100.369C573.234 96.996 569.13 93.6661 565.018 90.4743C564.635 90.1784 564.568 89.63 564.864 89.2473C565.16 88.8646 565.708 88.7975 566.09 89.0934C570.218 92.301 574.342 95.6467 578.347 99.0357C578.714 99.3474 578.761 99.8998 578.45 100.267C578.276 100.472 578.032 100.574 577.783 100.574Z" fill="#22C55E" fill-opacity="0.09"/>
<path d="M565.556 90.6558C565.371 90.6558 565.181 90.5967 565.02 90.4704C507.731 45.9786 439.423 20.5745 372.676 18.9451C372.195 18.9332 371.813 18.5308 371.824 18.0495C371.836 17.576 372.227 17.1973 372.7 17.1973C372.708 17.1973 372.712 17.1973 372.719 17.1973C406.448 18.0218 440.298 24.6856 473.321 37.003C506.138 49.2414 537.351 66.7667 566.092 89.0895C566.474 89.3854 566.541 89.9338 566.246 90.3165C566.072 90.5375 565.816 90.6558 565.556 90.6558Z" fill="#22C55E" fill-opacity="0.09"/>
<path d="M538.251 92.7861C538.085 92.7861 537.916 92.7387 537.766 92.6362C494.252 63.409 445.46 45.5878 396.659 41.1019C396.178 41.0585 395.827 40.6324 395.871 40.1511C395.914 39.6698 396.344 39.3186 396.821 39.362C445.913 43.8755 494.986 61.7953 538.74 91.1843C539.138 91.4526 539.244 91.997 538.976 92.3955C538.807 92.648 538.531 92.7821 538.251 92.7821V92.7861Z" fill="#22C55E" fill-opacity="0.09"/>
<path d="M590.411 117.851C589.662 117.851 588.909 117.724 588.18 117.472C584.639 116.241 582.762 112.363 583.989 108.82C585.215 105.281 589.09 103.395 592.635 104.626C596.171 105.857 598.052 109.735 596.825 113.278C596.23 114.994 595.004 116.375 593.372 117.168C592.434 117.622 591.424 117.851 590.415 117.851H590.411ZM590.411 105.995C588.321 105.995 586.362 107.305 585.637 109.392C584.726 112.023 586.122 114.907 588.751 115.819C590.025 116.261 591.393 116.182 592.607 115.594C593.821 115.006 594.732 113.98 595.174 112.706C596.084 110.074 594.689 107.19 592.059 106.279C591.515 106.089 590.955 105.999 590.407 105.999L590.411 105.995Z" fill="#22C55E" fill-opacity="0.09"/>
<path d="M361.967 24.942C361.904 24.942 361.841 24.9341 361.782 24.9223L350.072 22.3657C349.777 22.3026 349.536 22.0895 349.434 21.8055C349.331 21.5214 349.386 21.2058 349.576 20.9691C353.045 16.6213 356.905 12.5457 356.944 12.5063C357.149 12.2893 357.453 12.1946 357.741 12.2498C358.032 12.305 358.277 12.5063 358.387 12.7824L362.779 23.7466C362.901 24.0464 362.846 24.3897 362.637 24.6343C362.468 24.8316 362.223 24.942 361.971 24.942H361.967ZM351.827 20.9612L360.544 22.8628L357.279 14.7078C356.096 15.99 353.956 18.3651 351.827 20.9572V20.9612Z" fill="#22C55E" fill-opacity="0.09"/>
<path d="M688.477 721.238H519.638C509.502 721.238 501.921 711.931 503.963 701.996L529.577 577.39C531.73 566.911 540.948 559.392 551.64 559.392H696.46L688.473 721.242L688.477 721.238Z" fill="white"/>
<path d="M688.477 722.114H519.638C514.545 722.114 509.778 719.849 506.557 715.896C503.336 711.943 502.082 706.814 503.107 701.819L528.722 577.213C530.949 566.379 540.589 558.516 551.64 558.516H696.46C696.701 558.516 696.929 558.614 697.095 558.788C697.26 558.961 697.347 559.194 697.335 559.435L689.348 721.285C689.324 721.751 688.942 722.118 688.477 722.118V722.114ZM551.64 560.263C541.413 560.263 532.495 567.539 530.433 577.564L504.818 702.17C503.9 706.648 505.027 711.248 507.913 714.787C510.799 718.33 515.073 720.362 519.642 720.362H687.649L695.549 560.259H551.644L551.64 560.263Z" fill="#22C55E" fill-opacity="0.09"/>
<path d="M710.092 721.238H677.326C667.19 721.238 659.608 711.931 661.65 701.996L689.863 564.749C690.506 561.629 693.25 559.388 696.431 559.388H704.856C708.35 559.388 711.259 562.071 711.543 565.554L723.083 707.129C723.702 714.728 717.705 721.238 710.088 721.238H710.092Z" fill="white"/>
<path d="M710.092 722.114H677.325C672.232 722.114 667.465 719.849 664.244 715.896C661.027 711.943 659.769 706.814 660.794 701.819L689.007 564.572C689.728 561.06 692.851 558.516 696.431 558.516H704.856C708.775 558.516 712.094 561.577 712.414 565.487L723.953 707.062C724.269 710.925 722.944 714.779 720.318 717.628C717.693 720.48 713.963 722.114 710.088 722.114H710.092ZM696.435 560.263C693.679 560.263 691.274 562.224 690.718 564.927L662.505 702.174C661.587 706.652 662.714 711.248 665.6 714.791C668.486 718.334 672.76 720.366 677.325 720.366H710.092C713.529 720.366 716.707 718.973 719.037 716.444C721.367 713.915 722.495 710.633 722.215 707.204L710.675 565.629C710.431 562.623 707.876 560.263 704.86 560.263H696.435Z" fill="#22C55E" fill-opacity="0.09"/>
<path d="M665.47 625.673H533.274C532.793 625.673 532.398 625.282 532.398 624.797C532.398 624.312 532.789 623.921 533.274 623.921H665.47C668.999 623.921 672.035 621.523 672.847 618.082L684.501 568.856C684.611 568.386 685.084 568.095 685.549 568.205C686.019 568.315 686.31 568.789 686.196 569.258L674.542 618.485C673.541 622.714 669.807 625.665 665.466 625.665L665.47 625.673Z" fill="#22C55E" fill-opacity="0.09"/>
<path d="M614.449 624.802L610.747 639.751C610.148 642.28 607.893 644.067 605.295 644.067H579.113C576.262 644.067 574.196 641.349 574.961 638.599L578.797 624.806H614.453L614.449 624.802Z" fill="white"/>
<path d="M605.292 644.935H579.11C577.474 644.935 575.972 644.189 574.982 642.887C573.992 641.585 573.677 639.936 574.115 638.362L577.951 624.569C578.057 624.19 578.4 623.93 578.794 623.93H614.451C614.719 623.93 614.971 624.052 615.14 624.265C615.306 624.478 615.365 624.754 615.298 625.015L611.596 639.964C610.902 642.891 608.312 644.943 605.296 644.943L605.292 644.935ZM579.457 625.674L575.798 638.827C575.506 639.873 575.715 640.966 576.374 641.83C577.028 642.694 578.026 643.187 579.11 643.187H605.292C607.496 643.187 609.388 641.688 609.893 639.545L613.331 625.674H579.457Z" fill="#22C55E" fill-opacity="0.09"/>
<path d="M653.409 709.596H512.973C512.492 709.596 512.098 709.205 512.098 708.72C512.098 708.234 512.488 707.844 512.973 707.844H653.409C653.89 707.844 654.285 708.234 654.285 708.72C654.285 709.205 653.894 709.596 653.409 709.596Z" fill="#22C55E" fill-opacity="0.09"/>
<path d="M584.998 553.733H574.038C571.077 553.733 568.676 556.136 568.676 559.099H590.364C590.364 556.136 587.963 553.733 585.002 553.733H584.998Z" fill="#22C55E" fill-opacity="0.09"/>
<path d="M590.36 559.975H568.672C568.191 559.975 567.797 559.584 567.797 559.103C567.797 555.663 570.592 552.861 574.034 552.861H584.994C588.432 552.861 591.231 555.663 591.231 559.103C591.231 559.584 590.841 559.975 590.356 559.975H590.36ZM569.634 558.227H589.406C589 556.168 587.178 554.609 585.002 554.609H574.042C571.866 554.609 570.044 556.168 569.638 558.227H569.634Z" fill="#22C55E" fill-opacity="0.09"/>
<path d="M672.857 553.733H661.897C658.936 553.733 656.535 556.136 656.535 559.099H678.223C678.223 556.136 675.822 553.733 672.861 553.733H672.857Z" fill="#22C55E" fill-opacity="0.09"/>
<path d="M678.219 559.975H656.531C656.05 559.975 655.656 559.584 655.656 559.103C655.656 555.663 658.455 552.861 661.893 552.861H672.854C676.291 552.861 679.091 555.663 679.091 559.103C679.091 559.584 678.7 559.975 678.215 559.975H678.219ZM657.49 558.227H677.261C676.855 556.168 675.034 554.609 672.857 554.609H661.897C659.721 554.609 657.9 556.168 657.493 558.227H657.49Z" fill="#22C55E" fill-opacity="0.09"/>
<path d="M669.993 553.446L671.759 542.947C673.013 535.502 667.994 529.462 660.555 529.462H594.821C587.382 529.462 580.333 535.498 579.079 542.947L577.312 553.446H582.343L583.719 545.275C584.693 539.479 590.181 534.78 595.972 534.78H657.622C663.413 534.78 667.316 539.479 666.342 545.275L664.967 553.446H669.997H669.993Z" fill="white"/>
<path d="M669.994 554.317H664.963C664.707 554.317 664.463 554.203 664.297 554.01C664.131 553.812 664.061 553.552 664.104 553.3L665.48 545.129C665.913 542.556 665.318 540.154 663.808 538.366C662.33 536.619 660.134 535.656 657.622 535.656H595.973C590.6 535.656 585.49 540.035 584.583 545.421L583.207 553.592C583.136 554.014 582.774 554.321 582.348 554.321H577.317C577.061 554.321 576.817 554.207 576.651 554.014C576.485 553.816 576.414 553.556 576.458 553.304L578.224 542.805C579.541 534.969 586.992 528.594 594.826 528.594H660.564C664.388 528.594 667.755 530.081 670.037 532.788C672.363 535.542 673.286 539.203 672.632 543.097L670.865 553.595C670.794 554.018 670.432 554.325 670.006 554.325L669.994 554.317ZM665.996 552.57H669.257L670.901 542.797C671.468 539.416 670.688 536.26 668.697 533.904C666.749 531.6 663.859 530.33 660.556 530.33H594.818C587.796 530.33 581.122 536.05 579.939 543.085L578.342 552.566H581.603L582.856 545.121C583.897 538.931 589.78 533.896 595.969 533.896H657.618C660.654 533.896 663.323 535.08 665.141 537.226C666.99 539.412 667.723 542.32 667.203 545.409L666 552.562L665.996 552.57Z" fill="#22C55E" fill-opacity="0.09"/>
<path d="M657.292 525.114H599.55C597.224 525.114 595.02 527 594.626 529.332L593.778 534.378C593.388 536.706 594.957 538.596 597.283 538.596H655.025C657.351 538.596 659.555 536.706 659.95 534.378L660.797 529.332C661.187 527.004 659.618 525.114 657.292 525.114Z" fill="#22C55E" fill-opacity="0.09"/>
<path d="M655.022 539.467H597.28C595.904 539.467 594.69 538.927 593.858 537.944C593.014 536.946 592.679 535.629 592.912 534.232L593.759 529.186C594.217 526.459 596.811 524.242 599.543 524.242H657.285C658.661 524.242 659.875 524.783 660.707 525.765C661.551 526.763 661.886 528.081 661.65 529.478L660.802 534.524C660.341 537.25 657.747 539.467 655.018 539.467H655.022ZM599.547 525.986C597.631 525.986 595.81 527.552 595.486 529.474L594.639 534.52C594.489 535.4 594.69 536.212 595.195 536.812C595.687 537.396 596.429 537.716 597.28 537.716H655.022C656.938 537.716 658.76 536.149 659.083 534.228L659.931 529.182C660.081 528.302 659.883 527.489 659.375 526.89C658.882 526.306 658.141 525.986 657.285 525.986H599.543H599.547Z" fill="#22C55E" fill-opacity="0.09"/>
<path d="M677.02 709.595C676.717 709.595 676.421 709.437 676.26 709.153C676.019 708.735 676.169 708.198 676.587 707.962L698.779 695.309V569.061C698.779 568.58 699.169 568.186 699.654 568.186C700.139 568.186 700.53 568.576 700.53 569.061V695.814C700.53 696.129 700.36 696.417 700.088 696.571L677.454 709.477C677.316 709.555 677.17 709.591 677.024 709.591L677.02 709.595Z" fill="#22C55E" fill-opacity="0.09"/>
<path d="M256.644 87.6066C280.545 87.6066 299.921 68.2168 299.921 44.2984C299.921 20.38 280.545 0.990234 256.644 0.990234C232.743 0.990234 213.367 20.38 213.367 44.2984C213.367 68.2168 232.743 87.6066 256.644 87.6066Z" fill="white"/>
<path d="M256.697 88.4777C255.849 88.4777 255.006 88.4541 254.154 88.4067C242.382 87.7399 231.571 82.5281 223.714 73.7261C215.86 64.924 211.898 53.589 212.564 41.8042C213.231 30.0233 218.439 19.2052 227.234 11.3421C236.03 3.479 247.345 -0.482139 259.133 0.184627C270.906 0.851392 281.716 6.06321 289.574 14.8653C297.427 23.6674 301.389 35.0024 300.723 46.7872C300.057 58.568 294.849 69.3862 286.053 77.2492C277.892 84.5403 267.555 88.4817 256.701 88.4817L256.697 88.4777ZM256.587 1.8614C246.163 1.8614 236.231 5.645 228.394 12.648C219.945 20.1994 214.942 30.5875 214.303 41.9028C213.664 53.2181 217.469 64.1073 225.011 72.5622C232.557 81.0171 242.938 86.0237 254.249 86.6629C265.552 87.302 276.437 83.4948 284.886 75.9473C293.335 68.3959 298.338 58.0078 298.976 46.6925C299.615 35.3772 295.811 24.488 288.269 16.0331C280.723 7.57822 270.342 2.57157 259.031 1.93242C258.215 1.88507 257.399 1.8614 256.587 1.8614Z" fill="#22C55E" fill-opacity="0.09"/>
<path d="M284.296 71.9688C299.568 56.686 299.568 31.9077 284.296 16.625C269.024 1.3422 244.264 1.34221 228.992 16.625C213.72 31.9077 213.72 56.686 228.992 71.9688C244.264 87.2515 269.024 87.2515 284.296 71.9688Z" fill="white"/>
<path d="M281.103 68.7745C294.611 55.2559 294.611 33.3379 281.103 19.8193C267.594 6.30069 245.692 6.30069 232.183 19.8193C218.674 33.3379 218.674 55.2559 232.183 68.7745C245.692 82.2931 267.594 82.2931 281.103 68.7745Z" fill="white"/>
<path d="M256.693 80.8828C255.991 80.8828 255.289 80.8631 254.584 80.8237C244.834 80.2713 235.884 75.9551 229.375 68.668C222.87 61.3809 219.59 51.991 220.142 42.2341C220.169 41.7528 220.576 41.3859 221.064 41.4096C221.545 41.4372 221.912 41.8514 221.888 42.3328C221.364 51.6241 224.487 60.5603 230.68 67.5041C236.874 74.444 245.398 78.5551 254.682 79.0798C263.955 79.6045 272.897 76.4798 279.832 70.2817C286.767 64.0835 290.875 55.5537 291.399 46.2623C291.923 36.971 288.801 28.0348 282.607 21.091C276.413 14.1511 267.89 10.04 258.605 9.51531C247.03 8.86038 235.943 13.9854 228.918 23.2215C228.626 23.6042 228.078 23.6791 227.696 23.3872C227.313 23.0952 227.238 22.5468 227.53 22.1641C234.907 12.4664 246.561 7.08497 258.704 7.77146C268.453 8.32381 277.403 12.64 283.908 19.9271C290.413 27.2142 293.694 36.6041 293.142 46.361C292.59 56.1178 288.276 65.0777 280.995 71.5836C274.237 77.624 265.674 80.8828 256.689 80.8828H256.693Z" fill="#22C55E" fill-opacity="0.09"/>
<path d="M133.359 247.017C149.801 230.563 149.801 203.886 133.359 187.432C116.917 170.979 90.2595 170.979 73.8176 187.432C57.3757 203.886 57.3757 230.563 73.8176 247.017C90.2595 263.47 116.917 263.47 133.359 247.017Z" fill="white"/>
<path d="M103.66 260.222C88.8363 260.222 74.3988 252.557 66.431 238.831C54.5245 218.327 61.5067 191.952 81.996 180.041C91.9193 174.269 103.495 172.71 114.593 175.654C125.687 178.597 134.976 185.687 140.743 195.617C152.65 216.121 145.668 242.496 125.178 254.407C118.405 258.348 110.981 260.222 103.66 260.222ZM103.522 175.95C96.3389 175.95 89.2502 177.843 82.8752 181.552C63.2178 192.982 56.5195 218.283 67.9409 237.955C79.3624 257.626 104.646 264.329 124.303 252.9C143.961 241.47 150.659 216.169 139.237 196.497C133.706 186.969 124.796 180.167 114.147 177.342C110.631 176.411 107.063 175.95 103.522 175.95Z" fill="#22C55E" fill-opacity="0.09"/>
<path d="M97.6562 242.394L128.185 224.641C131.371 222.789 132.453 218.703 130.602 215.515L119.208 195.894C117.357 192.706 113.274 191.623 110.089 193.476L79.5597 211.228C76.3743 213.081 75.2926 217.167 77.1435 220.354L88.537 239.976C90.388 243.163 94.4708 244.246 97.6562 242.394Z" fill="white"/>
<path d="M94.3141 244.17C91.7121 244.17 89.177 242.824 87.7774 240.414L76.3836 220.793C75.3703 219.05 75.0983 217.014 75.6148 215.065C76.1312 213.116 77.3731 211.482 79.1157 210.468L109.643 192.718C113.242 190.623 117.867 191.854 119.956 195.452L131.35 215.073C132.363 216.816 132.635 218.852 132.119 220.801C131.602 222.75 130.361 224.384 128.614 225.398L98.0871 243.148C96.8965 243.838 95.5955 244.17 94.3102 244.17H94.3141ZM113.427 193.448C112.438 193.448 111.436 193.701 110.522 194.233L79.9949 211.983C78.6545 212.761 77.7004 214.015 77.3022 215.514C76.904 217.014 77.1169 218.576 77.8936 219.917L89.2874 239.538C90.0641 240.879 91.3178 241.834 92.816 242.232C94.3141 242.631 95.8754 242.418 97.2158 241.641L127.743 223.89C129.083 223.113 130.037 221.859 130.435 220.359C130.834 218.86 130.621 217.298 129.844 215.956L118.45 196.336C117.374 194.486 115.426 193.448 113.427 193.448Z" fill="#22C55E" fill-opacity="0.09"/>
<path d="M104.506 220.288C104.376 220.288 104.242 220.257 104.116 220.198C103.686 219.981 103.509 219.456 103.725 219.026L112.088 202.309C112.304 201.879 112.829 201.702 113.258 201.919C113.688 202.136 113.866 202.661 113.649 203.091L105.287 219.807C105.133 220.115 104.825 220.288 104.506 220.288Z" fill="#22C55E" fill-opacity="0.09"/>
<path d="M104.419 220.343C104.419 220.343 104.388 220.343 104.372 220.343L85.7161 219.337C85.2351 219.309 84.8645 218.899 84.8921 218.418C84.9197 217.937 85.3455 217.566 85.8107 217.593L104.467 218.599C104.948 218.627 105.318 219.037 105.291 219.519C105.267 219.984 104.881 220.347 104.419 220.347V220.343Z" fill="#22C55E" fill-opacity="0.09"/>
<path d="M161.846 126.117C177.652 110.299 177.652 84.654 161.846 68.8366C146.04 53.0192 120.414 53.0192 104.608 68.8366C88.8016 84.654 88.8016 110.299 104.608 126.117C120.414 141.934 146.04 141.934 161.846 126.117Z" fill="white"/>
<path d="M133.308 138.864C130.371 138.864 127.414 138.549 124.477 137.914C113.682 135.574 104.445 129.171 98.4638 119.879C92.483 110.588 90.4763 99.5213 92.8142 88.719C95.1521 77.9166 101.551 68.6726 110.839 62.6915C120.124 56.7063 131.183 54.7021 141.977 57.0378C152.772 59.3774 162.009 65.7807 167.986 75.072C180.33 94.2543 174.779 119.907 155.611 132.26C148.853 136.616 141.157 138.864 133.308 138.864ZM133.146 57.8347C125.628 57.8347 118.255 59.9889 111.786 64.1591C102.895 69.8917 96.7646 78.7451 94.5252 89.0898C92.2859 99.4346 94.2098 110.032 99.9344 118.932C105.663 127.833 114.51 133.964 124.847 136.205C135.184 138.446 145.774 136.525 154.668 130.792C173.025 118.96 178.343 94.3884 166.52 76.0189C160.791 67.1181 151.944 60.9871 141.607 58.7461C138.792 58.1346 135.957 57.8347 133.146 57.8347Z" fill="#22C55E" fill-opacity="0.09"/>
<path d="M138.367 119.51C139.581 116.641 138.241 113.33 135.373 112.115C132.506 110.9 129.198 112.241 127.983 115.11C126.769 117.98 128.109 121.291 130.977 122.506C133.844 123.721 137.152 122.379 138.367 119.51Z" fill="#22C55E" fill-opacity="0.09"/>
<path d="M143.161 110.189C143.883 110.181 144.596 109.865 145.097 109.265C146 108.18 145.854 106.567 144.766 105.659C141.225 102.712 137.216 101.177 133.175 101.229C129.134 101.28 125.168 102.91 121.698 105.947C120.634 106.879 120.527 108.496 121.458 109.557C122.388 110.623 124.005 110.729 125.065 109.798C127.64 107.541 130.388 106.381 133.234 106.346C136.081 106.31 138.86 107.403 141.49 109.593C141.975 109.999 142.57 110.193 143.157 110.185L143.161 110.189Z" fill="#22C55E" fill-opacity="0.09"/>
<path d="M117.372 101.285C117.955 101.277 118.539 101.072 119.012 100.661C123.416 96.8421 128.151 94.8773 133.087 94.8142C138.023 94.7511 142.805 96.6015 147.303 100.306C148.395 101.206 150.004 101.048 150.903 99.959C151.802 98.8661 151.644 97.2564 150.556 96.3569C145.174 91.9223 139.115 89.6221 133.023 89.6971C126.932 89.772 120.932 92.2261 115.665 96.7948C114.596 97.7219 114.482 99.3356 115.404 100.405C115.917 100.997 116.642 101.296 117.372 101.289V101.285Z" fill="#22C55E" fill-opacity="0.09"/>
<path d="M111.334 92.1311C111.926 92.1232 112.517 91.9141 112.994 91.492C119.223 85.9961 125.934 83.1633 132.943 83.0765C139.953 82.9897 146.734 85.6528 153.097 90.9909C154.182 91.8983 155.794 91.7563 156.701 90.6753C157.608 89.5903 157.466 87.9767 156.386 87.0692C152.841 84.0944 149.088 81.814 145.224 80.2832C141.203 78.6893 137.047 77.9081 132.88 77.9594C128.713 78.0107 124.577 78.8984 120.595 80.591C116.775 82.2164 113.077 84.5915 109.608 87.6531C108.547 88.5882 108.448 90.2058 109.383 91.2671C109.895 91.851 110.617 92.143 111.334 92.1351V92.1311Z" fill="#22C55E" fill-opacity="0.09"/>
<path d="M133.348 484.673C132.954 484.673 132.564 484.673 132.173 484.662C131.692 484.654 131.306 484.255 131.318 483.77C131.326 483.293 131.716 482.914 132.193 482.914C132.197 482.914 132.205 482.914 132.209 482.914C135.58 482.977 139.053 482.76 142.519 482.275C142.996 482.208 143.437 482.539 143.504 483.02C143.571 483.498 143.24 483.94 142.759 484.007C139.601 484.449 136.435 484.673 133.348 484.673ZM121.785 483.549C121.726 483.549 121.671 483.545 121.611 483.533C118.036 482.811 114.617 481.742 111.448 480.353C111.006 480.16 110.805 479.643 110.998 479.201C111.191 478.759 111.704 478.558 112.149 478.751C115.201 480.089 118.501 481.119 121.958 481.817C122.431 481.912 122.735 482.373 122.64 482.847C122.558 483.261 122.191 483.549 121.785 483.549ZM152.876 481.801C152.497 481.801 152.15 481.553 152.036 481.174C151.902 480.712 152.166 480.227 152.631 480.089C155.935 479.122 159.199 477.911 162.334 476.491C162.771 476.29 163.292 476.491 163.489 476.925C163.686 477.363 163.489 477.883 163.051 478.081C159.842 479.537 156.499 480.775 153.116 481.762C153.033 481.785 152.951 481.797 152.872 481.797L152.876 481.801ZM102.806 475.11C102.62 475.11 102.431 475.051 102.269 474.924C99.4427 472.731 96.9234 470.174 94.7747 467.326C94.483 466.939 94.5618 466.391 94.9443 466.103C95.3306 465.811 95.8747 465.89 96.1664 466.272C98.2244 468.999 100.637 471.445 103.342 473.544C103.724 473.839 103.791 474.388 103.496 474.771C103.322 474.992 103.066 475.11 102.806 475.11ZM171.902 473.173C171.614 473.173 171.334 473.031 171.165 472.77C170.905 472.364 171.023 471.823 171.429 471.563C174.366 469.685 177.146 467.594 179.693 465.353C180.051 465.033 180.603 465.069 180.927 465.432C181.246 465.795 181.21 466.347 180.848 466.667C178.234 468.967 175.383 471.113 172.367 473.039C172.222 473.133 172.06 473.177 171.898 473.177L171.902 473.173ZM187.629 459.419C187.42 459.419 187.215 459.348 187.049 459.198C186.691 458.879 186.655 458.326 186.978 457.963C189.253 455.407 191.469 452.696 193.562 449.903C193.854 449.516 194.398 449.437 194.785 449.729C195.171 450.017 195.246 450.566 194.958 450.952C192.833 453.785 190.586 456.535 188.283 459.127C188.11 459.321 187.873 459.419 187.633 459.419H187.629ZM90.2881 458.603C89.9491 458.603 89.6258 458.401 89.4839 458.066C88.1592 454.91 87.1341 451.481 86.4363 447.871C86.3456 447.398 86.6571 446.94 87.1302 446.849C87.6072 446.759 88.0606 447.07 88.1552 447.544C88.8255 451.035 89.815 454.349 91.0964 457.391C91.2817 457.837 91.0727 458.35 90.6311 458.535C90.5208 458.583 90.4064 458.603 90.2921 458.603H90.2881ZM86.1879 438.17C85.7188 438.17 85.3285 437.795 85.3166 437.317C85.3009 436.741 85.293 436.169 85.293 435.597C85.293 432.559 85.5177 429.569 85.9593 426.712C86.0342 426.235 86.4797 425.907 86.9567 425.982C87.4338 426.057 87.761 426.503 87.6861 426.981C87.2563 429.75 87.0395 432.65 87.0395 435.597C87.0395 436.15 87.0474 436.706 87.0632 437.27C87.075 437.751 86.6965 438.154 86.2155 438.166C86.2076 438.166 86.1997 438.166 86.1919 438.166L86.1879 438.17ZM89.4839 417.606C89.3814 417.606 89.2749 417.587 89.1724 417.547C88.723 417.374 88.4982 416.869 88.6717 416.419C89.9609 413.061 91.6247 409.885 93.6156 406.978C93.8877 406.579 94.4317 406.477 94.8299 406.753C95.2281 407.025 95.3306 407.569 95.0586 407.968C93.1425 410.765 91.5419 413.819 90.3039 417.05C90.1699 417.397 89.8387 417.61 89.4878 417.61L89.4839 417.606ZM101.237 400.487C100.996 400.487 100.759 400.389 100.586 400.196C100.263 399.836 100.294 399.284 100.653 398.961C103.275 396.609 106.204 394.542 109.354 392.814C109.78 392.581 110.308 392.739 110.541 393.161C110.773 393.583 110.616 394.116 110.194 394.348C107.158 396.013 104.339 398.002 101.816 400.263C101.65 400.412 101.442 400.487 101.233 400.487H101.237ZM169.131 399.758C168.949 399.758 168.772 399.702 168.614 399.588C165.835 397.54 162.874 395.733 159.811 394.214C159.377 394.001 159.199 393.477 159.416 393.043C159.629 392.609 160.154 392.431 160.587 392.648C163.741 394.21 166.789 396.073 169.651 398.179C170.041 398.467 170.124 399.012 169.836 399.402C169.667 399.635 169.399 399.758 169.131 399.758ZM150.443 390.514C150.364 390.514 150.281 390.502 150.203 390.478C146.891 389.523 143.488 388.868 140.086 388.533C139.605 388.486 139.254 388.06 139.302 387.578C139.349 387.097 139.767 386.746 140.256 386.793C143.764 387.14 147.273 387.815 150.688 388.797C151.149 388.932 151.417 389.417 151.283 389.878C151.172 390.261 150.822 390.51 150.443 390.51V390.514ZM119.431 390.45C119.053 390.45 118.706 390.206 118.595 389.823C118.457 389.362 118.722 388.872 119.183 388.738C122.546 387.74 126.063 387.069 129.631 386.746C130.104 386.702 130.537 387.057 130.581 387.539C130.624 388.02 130.269 388.446 129.788 388.49C126.335 388.801 122.936 389.448 119.68 390.415C119.597 390.439 119.514 390.45 119.431 390.45Z" fill="#22C55E" fill-opacity="0.09"/>
<path d="M209.474 425.505C209.356 425.505 209.234 425.482 209.12 425.43C208.678 425.233 208.481 424.716 208.678 424.274C210.078 421.138 211.371 417.887 212.518 414.604C212.676 414.15 213.176 413.906 213.63 414.068C214.083 414.225 214.324 414.726 214.166 415.18C213.003 418.506 211.69 421.808 210.271 424.984C210.125 425.308 209.806 425.501 209.474 425.501V425.505ZM216.413 405.747C216.338 405.747 216.263 405.739 216.189 405.719C215.723 405.597 215.443 405.12 215.57 404.65C216.441 401.348 217.21 397.927 217.852 394.487C217.939 394.013 218.388 393.698 218.869 393.788C219.343 393.875 219.654 394.333 219.567 394.806C218.917 398.29 218.14 401.754 217.257 405.096C217.154 405.486 216.8 405.747 216.413 405.747ZM220.277 385.152C220.241 385.152 220.21 385.152 220.174 385.144C219.693 385.089 219.35 384.655 219.41 384.174C219.808 380.792 220.107 377.293 220.301 373.782C220.328 373.3 220.754 372.933 221.219 372.957C221.7 372.985 222.071 373.395 222.043 373.876C221.846 377.427 221.546 380.958 221.144 384.379C221.093 384.825 220.715 385.152 220.277 385.152ZM221.456 364.222C220.975 364.222 220.584 363.831 220.584 363.35C220.584 359.945 220.494 356.434 220.316 352.911C220.293 352.429 220.663 352.019 221.144 351.995C221.625 351.976 222.035 352.343 222.059 352.824C222.236 356.375 222.327 359.918 222.327 363.35C222.327 363.831 221.937 364.226 221.456 364.226V364.222ZM220.431 343.28C219.985 343.28 219.603 342.941 219.563 342.487C219.244 339.11 218.846 335.614 218.381 332.103C218.317 331.625 218.653 331.184 219.13 331.12C219.607 331.053 220.048 331.393 220.111 331.87C220.58 335.405 220.983 338.924 221.302 342.321C221.349 342.803 220.994 343.229 220.513 343.272C220.486 343.272 220.458 343.272 220.431 343.272V343.28ZM217.675 322.492C217.257 322.492 216.886 322.188 216.815 321.762C216.256 318.432 215.621 314.968 214.927 311.473C214.832 310.999 215.14 310.538 215.613 310.447C216.094 310.352 216.547 310.66 216.638 311.133C217.336 314.645 217.974 318.124 218.538 321.474C218.617 321.951 218.298 322.401 217.821 322.48C217.769 322.488 217.722 322.492 217.675 322.492ZM213.606 301.921C213.208 301.921 212.845 301.645 212.755 301.238C212.021 297.976 211.209 294.547 210.346 291.051C210.231 290.582 210.515 290.108 210.984 289.994C211.45 289.88 211.927 290.164 212.041 290.633C212.908 294.141 213.721 297.577 214.458 300.856C214.564 301.325 214.268 301.795 213.799 301.901C213.736 301.917 213.669 301.921 213.606 301.921Z" fill="#22C55E" fill-opacity="0.09"/>
<path d="M193.629 246.824C193.302 246.824 192.986 246.639 192.837 246.323C191.409 243.301 189.821 240.168 188.113 237.012C187.885 236.586 188.042 236.057 188.468 235.828C188.894 235.6 189.422 235.757 189.651 236.184C191.37 239.367 192.975 242.532 194.414 245.577C194.619 246.015 194.433 246.536 193.996 246.741C193.873 246.797 193.747 246.824 193.621 246.824H193.629ZM183.698 228.356C183.402 228.356 183.11 228.206 182.949 227.93C181.202 225.014 179.341 222.032 177.41 219.065C177.145 218.658 177.26 218.118 177.666 217.857C178.072 217.593 178.612 217.707 178.876 218.114C180.82 221.1 182.696 224.103 184.451 227.034C184.699 227.449 184.565 227.985 184.151 228.234C184.009 228.317 183.856 228.36 183.702 228.36L183.698 228.356ZM172.268 210.768C171.992 210.768 171.72 210.637 171.551 210.393C169.591 207.588 167.53 204.735 165.42 201.906C165.133 201.52 165.211 200.971 165.598 200.683C165.984 200.395 166.532 200.474 166.82 200.861C168.937 203.701 171.011 206.57 172.982 209.391C173.258 209.785 173.163 210.33 172.765 210.606C172.611 210.712 172.438 210.764 172.265 210.764L172.268 210.768ZM159.735 193.941C159.475 193.941 159.223 193.826 159.049 193.609C156.908 190.899 154.689 188.173 152.449 185.498C152.138 185.127 152.189 184.574 152.56 184.267C152.93 183.955 153.482 184.006 153.79 184.377C156.037 187.064 158.269 189.806 160.421 192.528C160.721 192.907 160.658 193.455 160.279 193.755C160.118 193.881 159.928 193.945 159.739 193.945L159.735 193.941ZM146.279 177.859C146.039 177.859 145.798 177.761 145.625 177.563C143.303 174.94 140.933 172.336 138.58 169.831C138.248 169.479 138.268 168.927 138.619 168.596C138.974 168.264 139.526 168.284 139.853 168.635C142.215 171.156 144.6 173.768 146.934 176.407C147.253 176.77 147.218 177.323 146.859 177.642C146.693 177.788 146.484 177.863 146.279 177.863V177.859ZM131.925 162.571C131.7 162.571 131.479 162.484 131.306 162.315C128.771 159.778 126.24 157.336 123.783 155.051C123.429 154.724 123.409 154.171 123.74 153.816C124.067 153.461 124.619 153.442 124.974 153.769C127.446 156.065 129.993 158.527 132.544 161.076C132.887 161.419 132.887 161.971 132.544 162.311C132.374 162.48 132.149 162.567 131.925 162.567V162.571Z" fill="#22C55E" fill-opacity="0.09"/>
<path d="M136.101 400.466H129.896L128.405 407.082C126.97 407.339 125.571 407.709 124.226 408.195L119.633 403.216L114.26 406.321L116.274 412.799C115.174 413.73 114.153 414.752 113.223 415.857L106.749 413.841L103.646 419.218L108.622 423.814C108.137 425.16 107.766 426.556 107.51 427.997L100.898 429.488V435.698L107.51 437.189C107.766 438.625 108.137 440.026 108.622 441.371L103.646 445.968L106.749 451.345L113.223 449.329C114.153 450.43 115.174 451.452 116.274 452.387L114.26 458.865L119.633 461.97L124.226 456.991C125.571 457.476 126.966 457.847 128.405 458.104L129.896 464.72H136.101L137.591 458.104C139.027 457.847 140.426 457.476 141.771 456.991L146.364 461.97L151.737 458.865L149.723 452.387C150.823 451.456 151.844 450.434 152.778 449.333L159.252 451.349L162.354 445.972L157.379 441.375C157.864 440.03 158.234 438.633 158.491 437.193L165.102 435.702V429.492L158.491 428C158.234 426.564 157.864 425.164 157.379 423.818L162.354 419.222L159.252 413.845L152.778 415.861C151.848 414.76 150.826 413.738 149.723 412.803L151.737 406.325L146.364 403.22L141.771 408.199C140.426 407.713 139.03 407.343 137.591 407.086L136.101 400.47V400.466ZM148.973 432.593C148.973 441.423 141.822 448.579 132.998 448.579C124.175 448.579 117.023 441.423 117.023 432.593C117.023 423.763 124.175 416.606 132.998 416.606C141.822 416.606 148.973 423.763 148.973 432.593Z" fill="white"/>
<path d="M136.101 465.592H129.896C129.486 465.592 129.135 465.307 129.044 464.909L127.68 458.853C126.588 458.632 125.516 458.348 124.483 458.001L120.28 462.558C120.004 462.857 119.555 462.925 119.204 462.723L113.83 459.618C113.475 459.413 113.31 458.991 113.432 458.6L115.277 452.671C114.453 451.941 113.668 451.156 112.943 450.335L107.013 452.181C106.627 452.304 106.201 452.138 105.996 451.783L102.894 446.405C102.689 446.05 102.76 445.604 103.059 445.328L107.613 441.123C107.266 440.085 106.982 439.012 106.761 437.923L100.709 436.558C100.311 436.467 100.027 436.112 100.027 435.706V429.496C100.027 429.085 100.311 428.734 100.709 428.643L106.761 427.278C106.982 426.185 107.266 425.112 107.613 424.079L103.059 419.873C102.76 419.597 102.692 419.147 102.894 418.796L105.996 413.418C106.201 413.063 106.623 412.897 107.013 413.02L112.943 414.866C113.672 414.042 114.453 413.26 115.277 412.527L113.432 406.593C113.31 406.202 113.475 405.78 113.83 405.575L119.204 402.47C119.555 402.265 120.004 402.332 120.28 402.636L124.483 407.192C125.516 406.845 126.588 406.561 127.68 406.34L129.044 400.284C129.135 399.886 129.486 399.602 129.896 399.602H136.101C136.511 399.602 136.862 399.886 136.953 400.284L138.317 406.34C139.409 406.561 140.482 406.845 141.514 407.192L145.721 402.636C145.997 402.336 146.447 402.269 146.797 402.47L152.171 405.575C152.526 405.78 152.691 406.202 152.569 406.593L150.724 412.523C151.548 413.253 152.329 414.034 153.062 414.862L158.988 413.016C159.374 412.893 159.8 413.059 160.005 413.414L163.108 418.792C163.313 419.147 163.242 419.593 162.942 419.873L158.388 424.079C158.735 425.112 159.019 426.185 159.24 427.278L165.292 428.643C165.69 428.734 165.974 429.089 165.974 429.496V435.706C165.974 436.116 165.69 436.467 165.292 436.558L159.24 437.923C159.019 439.016 158.735 440.089 158.388 441.123L162.942 445.328C163.242 445.604 163.309 446.054 163.108 446.409L160.005 451.787C159.8 452.142 159.374 452.304 158.988 452.185L153.062 450.339C152.333 451.163 151.548 451.949 150.724 452.678L152.569 458.612C152.691 459.003 152.526 459.425 152.171 459.63L146.797 462.735C146.443 462.94 145.997 462.869 145.721 462.569L141.514 458.013C140.482 458.36 139.409 458.644 138.317 458.865L136.953 464.921C136.862 465.319 136.511 465.603 136.101 465.603V465.592ZM130.594 463.844H135.404L136.74 457.91C136.819 457.567 137.091 457.302 137.438 457.243C138.83 456.995 140.186 456.632 141.475 456.17C141.806 456.052 142.177 456.142 142.413 456.399L146.533 460.865L150.697 458.458L148.887 452.647C148.784 452.312 148.887 451.949 149.159 451.72C150.216 450.824 151.209 449.83 152.112 448.769C152.341 448.5 152.703 448.394 153.038 448.5L158.846 450.307L161.251 446.141L156.788 442.018C156.532 441.781 156.441 441.411 156.559 441.079C157.024 439.789 157.383 438.428 157.635 437.039C157.698 436.692 157.959 436.42 158.302 436.341L164.231 435.003V430.19L158.302 428.852C157.959 428.774 157.695 428.501 157.635 428.154C157.387 426.765 157.024 425.404 156.559 424.114C156.441 423.783 156.532 423.416 156.788 423.175L161.251 419.052L158.846 414.886L153.038 416.693C152.707 416.795 152.341 416.693 152.112 416.425C151.213 415.359 150.22 414.369 149.159 413.469C148.891 413.245 148.784 412.878 148.887 412.542L150.697 406.731L146.533 404.324L142.413 408.79C142.177 409.047 141.81 409.138 141.475 409.019C140.186 408.554 138.83 408.195 137.438 407.946C137.091 407.883 136.819 407.622 136.74 407.279L135.404 401.345H130.594L129.257 407.279C129.178 407.622 128.906 407.887 128.559 407.946C127.168 408.195 125.811 408.558 124.522 409.019C124.195 409.138 123.82 409.047 123.584 408.79L119.464 404.324L115.301 406.731L117.106 412.542C117.209 412.878 117.106 413.241 116.838 413.469C115.778 414.369 114.784 415.363 113.889 416.425C113.661 416.693 113.298 416.799 112.963 416.693L107.155 414.886L104.75 419.052L109.213 423.175C109.47 423.412 109.56 423.783 109.442 424.114C108.977 425.404 108.618 426.765 108.37 428.154C108.307 428.501 108.046 428.777 107.703 428.852L101.774 430.19V435.003L107.703 436.341C108.046 436.42 108.311 436.692 108.37 437.039C108.618 438.428 108.977 439.785 109.442 441.079C109.56 441.411 109.47 441.777 109.213 442.018L104.75 446.141L107.155 450.307L112.963 448.5C113.298 448.398 113.661 448.5 113.889 448.769C114.784 449.83 115.778 450.824 116.838 451.724C117.106 451.949 117.213 452.315 117.106 452.651L115.301 458.462L119.464 460.869L123.584 456.403C123.82 456.146 124.191 456.056 124.522 456.174C125.811 456.64 127.168 456.999 128.559 457.247C128.906 457.31 129.178 457.571 129.257 457.914L130.594 463.848V463.844ZM132.999 449.455C123.71 449.455 116.148 441.892 116.148 432.593C116.148 423.293 123.706 415.73 132.999 415.73C142.291 415.73 149.845 423.293 149.845 432.593C149.845 441.892 142.287 449.455 132.999 449.455ZM132.999 417.478C124.672 417.478 117.895 424.256 117.895 432.593C117.895 440.929 124.668 447.707 132.999 447.707C141.329 447.707 148.098 440.929 148.098 432.593C148.098 424.256 141.325 417.478 132.999 417.478Z" fill="#22C55E" fill-opacity="0.09"/>
<path d="M102.511 288.299H91.8902L89.3394 299.622C86.8792 300.064 84.4901 300.699 82.1876 301.528L74.3302 293.01L65.1323 298.324L68.5781 309.41C66.6935 311.004 64.947 312.756 63.3542 314.638L52.2757 311.186L46.9652 320.39L55.4771 328.253C54.6491 330.554 54.0144 332.948 53.5728 335.41L42.2578 337.963V348.592L53.5728 351.144C54.0144 353.606 54.6491 355.997 55.4771 358.297L46.9652 366.16L52.2757 375.365L63.3542 371.917C64.947 373.803 66.6975 375.55 68.5781 377.144L65.1323 388.231L74.3302 393.545L82.1876 385.027C84.4861 385.856 86.8792 386.491 89.3394 386.933L91.8902 398.256H102.511L105.062 386.933C107.522 386.491 109.911 385.856 112.21 385.027L120.067 393.545L129.265 388.231L125.819 377.144C127.704 375.55 129.451 373.799 131.043 371.917L142.122 375.365L147.432 366.16L138.92 358.297C139.748 355.997 140.383 353.602 140.825 351.144L152.14 348.592V337.963L140.825 335.41C140.383 332.948 139.748 330.558 138.92 328.253L147.432 320.39L142.122 311.186L131.043 314.638C129.451 312.752 127.7 311.004 125.819 309.41L129.265 298.324L120.067 293.01L112.21 301.528C109.911 300.699 107.518 300.064 105.058 299.622L102.507 288.299H102.511ZM124.538 343.273C124.538 358.38 112.301 370.63 97.2007 370.63C82.1048 370.63 69.8633 358.384 69.8633 343.273C69.8633 328.167 82.1009 315.916 97.2007 315.916C112.297 315.916 124.538 328.163 124.538 343.273Z" fill="white"/>
<path d="M102.511 399.12H91.8903C91.4803 399.12 91.1294 398.836 91.0387 398.437L88.6141 387.678C86.5009 387.272 84.4271 386.72 82.4401 386.037L74.973 394.133C74.697 394.433 74.2476 394.5 73.8967 394.299L64.6988 388.984C64.344 388.779 64.1784 388.357 64.3006 387.966L67.5768 377.428C65.9762 376.036 64.4622 374.521 63.0666 372.915L52.5361 376.193C52.1458 376.316 51.724 376.15 51.519 375.795L46.2084 366.59C46.0034 366.235 46.0743 365.79 46.374 365.509L54.464 358.037C53.778 356.048 53.23 353.977 52.8239 351.858L42.0727 349.432C41.6745 349.341 41.3906 348.986 41.3906 348.58V337.951C41.3906 337.541 41.6745 337.19 42.0727 337.099L52.8239 334.673C53.23 332.558 53.782 330.483 54.464 328.494L46.374 321.022C46.0743 320.745 46.0073 320.296 46.2084 319.941L51.519 310.736C51.724 310.381 52.1458 310.215 52.5361 310.338L63.0666 313.616C64.4583 312.01 65.9722 310.499 67.5768 309.103L64.3006 298.565C64.1784 298.174 64.344 297.752 64.6988 297.547L73.8967 292.232C74.2476 292.027 74.697 292.094 74.973 292.398L82.4401 300.494C84.4271 299.807 86.5009 299.259 88.6141 298.853L91.0387 288.094C91.1294 287.695 91.4803 287.411 91.8903 287.411H102.511C102.921 287.411 103.272 287.695 103.363 288.094L105.788 298.853C107.901 299.259 109.975 299.811 111.962 300.494L119.429 292.398C119.705 292.098 120.154 292.031 120.505 292.232L129.703 297.547C130.058 297.752 130.223 298.174 130.101 298.565L126.825 309.103C128.43 310.499 129.944 312.01 131.335 313.616L141.866 310.338C142.252 310.215 142.678 310.381 142.883 310.736L148.193 319.941C148.398 320.296 148.327 320.741 148.028 321.022L139.938 328.494C140.624 330.483 141.172 332.554 141.578 334.673L152.329 337.099C152.727 337.19 153.011 337.545 153.011 337.951V348.58C153.011 348.99 152.727 349.341 152.329 349.432L141.578 351.858C141.172 353.973 140.62 356.048 139.938 358.037L148.028 365.509C148.327 365.786 148.394 366.235 148.193 366.59L142.883 375.795C142.678 376.15 142.252 376.312 141.866 376.193L131.335 372.915C129.94 374.521 128.426 376.036 126.825 377.428L130.101 387.966C130.223 388.357 130.058 388.779 129.703 388.984L120.505 394.299C120.15 394.504 119.705 394.437 119.429 394.133L111.962 386.037C109.975 386.724 107.905 387.272 105.788 387.678L103.363 398.437C103.272 398.836 102.921 399.12 102.511 399.12ZM92.5921 397.372H101.814L104.211 386.731C104.29 386.388 104.562 386.124 104.909 386.065C107.321 385.631 109.679 385.003 111.914 384.199C112.246 384.08 112.616 384.171 112.853 384.427L120.237 392.433L128.225 387.816L124.984 377.397C124.881 377.061 124.984 376.698 125.256 376.47C127.093 374.911 128.82 373.187 130.377 371.345C130.606 371.076 130.973 370.97 131.304 371.076L141.716 374.319L146.329 366.326L138.329 358.936C138.073 358.7 137.982 358.329 138.101 357.997C138.905 355.757 139.532 353.397 139.965 350.987C140.028 350.639 140.289 350.367 140.632 350.288L151.265 347.889V338.661L140.632 336.263C140.289 336.184 140.025 335.911 139.965 335.564C139.536 333.15 138.905 330.79 138.101 328.549C137.982 328.218 138.073 327.851 138.329 327.61L146.329 320.221L141.716 312.227L131.304 315.47C130.973 315.573 130.606 315.47 130.377 315.202C128.82 313.364 127.097 311.636 125.256 310.077C124.988 309.852 124.881 309.485 124.988 309.15L128.229 298.73L120.241 294.114L112.857 302.119C112.62 302.376 112.253 302.467 111.918 302.348C109.679 301.543 107.321 300.916 104.912 300.482C104.566 300.419 104.293 300.159 104.215 299.815L101.818 289.175H92.596L90.199 299.815C90.1201 300.159 89.8481 300.423 89.5012 300.482C87.0883 300.912 84.7307 301.543 82.4953 302.348C82.1602 302.467 81.7935 302.376 81.557 302.119L74.1727 294.114L66.1851 298.73L69.4259 309.15C69.5284 309.485 69.4259 309.848 69.1578 310.077C67.3166 311.636 65.5937 313.36 64.0364 315.202C63.8078 315.47 63.4451 315.577 63.11 315.47L52.6978 312.227L48.085 320.221L56.0844 327.61C56.3407 327.847 56.4313 328.218 56.3131 328.549C55.5088 330.786 54.8819 333.146 54.4482 335.56C54.3852 335.907 54.125 336.18 53.782 336.259L43.149 338.657V347.886L53.782 350.284C54.125 350.363 54.3891 350.635 54.4482 350.983C54.878 353.397 55.5088 355.757 56.3131 357.994C56.4313 358.325 56.3407 358.692 56.0844 358.933L48.085 366.322L52.6978 374.315L63.11 371.072C63.4451 370.97 63.8078 371.072 64.0364 371.341C65.5937 373.183 67.3206 374.907 69.1578 376.466C69.4259 376.691 69.5323 377.057 69.4259 377.393L66.1851 387.813L74.1727 392.429L81.557 384.423C81.7935 384.167 82.1602 384.076 82.4953 384.195C84.7347 384.999 87.0923 385.627 89.5012 386.061C89.8481 386.124 90.1201 386.384 90.199 386.728L92.596 397.368L92.5921 397.372ZM97.2009 371.502C81.6437 371.502 68.9922 358.838 68.9922 343.273C68.9922 335.734 71.9254 328.644 77.2557 323.31C82.586 317.98 89.6668 315.04 97.2048 315.04C112.762 315.04 125.414 327.705 125.414 343.269C125.414 358.834 112.758 371.498 97.2048 371.498L97.2009 371.502ZM97.2009 316.792C90.132 316.792 83.4849 319.546 78.4897 324.549C73.4906 329.551 70.7387 336.199 70.7387 343.273C70.7387 357.875 82.6096 369.755 97.2009 369.755C111.792 369.755 123.663 357.875 123.663 343.273C123.663 328.672 111.792 316.792 97.2009 316.792Z" fill="#22C55E" fill-opacity="0.09"/>
<path d="M250.816 260.05H390.894C395.128 260.05 397.561 256.614 396.327 252.376L369.356 159.72C368.122 155.482 363.691 152.046 359.456 152.046H219.379C215.145 152.046 212.712 155.482 213.946 159.72L240.917 252.376C242.151 256.614 246.582 260.05 250.816 260.05Z" fill="white"/>
<path d="M390.894 260.922H250.816C246.227 260.922 241.41 257.197 240.077 252.621L213.106 159.964C212.412 157.585 212.728 155.344 213.993 153.659C215.196 152.058 217.108 151.174 219.379 151.174H359.457C364.046 151.174 368.863 154.898 370.196 159.475L397.167 252.132C397.861 254.511 397.545 256.748 396.28 258.436C395.077 260.038 393.165 260.922 390.894 260.922ZM219.379 152.922C217.672 152.922 216.256 153.557 215.393 154.709C214.466 155.944 214.25 157.636 214.786 159.475L241.757 252.132C242.888 256.014 246.953 259.174 250.816 259.174H390.894C392.601 259.174 394.017 258.539 394.88 257.387C395.807 256.152 396.023 254.459 395.487 252.621L368.516 159.964C367.385 156.082 363.32 152.922 359.457 152.922H219.379Z" fill="#22C55E" fill-opacity="0.09"/>
<path d="M257.66 177.888H249.932C248.194 177.888 246.439 176.538 245.939 174.814L243.687 167.081C243.415 166.154 243.553 165.231 244.066 164.548C244.559 163.893 245.355 163.519 246.258 163.519H253.985C255.724 163.519 257.478 164.868 257.979 166.592L260.23 174.325C260.502 175.252 260.364 176.179 259.852 176.858C259.359 177.513 258.563 177.888 257.66 177.888ZM246.262 165.262C246.014 165.262 245.671 165.322 245.466 165.594C245.284 165.834 245.249 166.186 245.367 166.588L247.618 174.321C247.906 175.307 248.967 176.136 249.936 176.136H257.664C257.912 176.136 258.255 176.077 258.46 175.804C258.641 175.564 258.677 175.213 258.559 174.81L256.307 167.077C256.02 166.095 254.959 165.262 253.989 165.262H246.262Z" fill="#22C55E" fill-opacity="0.09"/>
<path d="M241.535 177.888H233.807C232.069 177.888 230.314 176.538 229.814 174.814L227.562 167.081C227.29 166.154 227.428 165.231 227.941 164.548C228.434 163.893 229.23 163.519 230.133 163.519H237.86C239.599 163.519 241.353 164.868 241.854 166.592L244.105 174.325C244.377 175.252 244.239 176.175 243.727 176.858C243.234 177.513 242.438 177.888 241.535 177.888ZM230.133 165.262C229.885 165.262 229.542 165.322 229.337 165.594C229.155 165.834 229.12 166.186 229.238 166.588L231.489 174.321C231.777 175.307 232.838 176.136 233.807 176.136H241.535C241.783 176.136 242.122 176.077 242.331 175.804C242.512 175.564 242.548 175.213 242.43 174.81L240.179 167.077C239.891 166.091 238.83 165.262 237.86 165.262H230.133Z" fill="#22C55E" fill-opacity="0.09"/>
<path d="M262.808 195.559H255.081C253.342 195.559 251.588 194.21 251.087 192.486L248.836 184.753C248.564 183.826 248.702 182.903 249.214 182.22C249.707 181.565 250.504 181.19 251.406 181.19H259.134C260.872 181.19 262.627 182.54 263.128 184.264L265.379 191.997C265.651 192.924 265.513 193.847 265 194.53C264.507 195.185 263.711 195.559 262.808 195.559ZM251.406 182.938C251.158 182.938 250.815 182.997 250.61 183.27C250.429 183.51 250.393 183.861 250.511 184.264L252.763 191.997C253.05 192.983 254.111 193.812 255.081 193.812H262.808C263.057 193.812 263.4 193.752 263.605 193.48C263.786 193.24 263.821 192.884 263.703 192.486L261.452 184.753C261.164 183.771 260.104 182.938 259.134 182.938H251.406Z" fill="#22C55E" fill-opacity="0.09"/>
<path d="M246.679 195.559H238.952C237.213 195.559 235.459 194.21 234.958 192.486L232.707 184.753C232.435 183.826 232.573 182.903 233.085 182.22C233.578 181.565 234.375 181.19 235.278 181.19H243.005C244.743 181.19 246.498 182.54 246.999 184.264L249.25 191.997C249.522 192.924 249.384 193.847 248.871 194.53C248.379 195.185 247.582 195.559 246.679 195.559ZM235.278 182.938C235.029 182.938 234.686 182.997 234.481 183.27C234.3 183.51 234.264 183.865 234.383 184.264L236.634 191.997C236.922 192.983 237.982 193.812 238.952 193.812H246.679C246.928 193.812 247.267 193.752 247.476 193.48C247.657 193.24 247.693 192.884 247.574 192.486L245.323 184.753C245.035 183.767 243.975 182.938 243.005 182.938H235.278Z" fill="#22C55E" fill-opacity="0.09"/>
<path d="M256.552 199.737H264.279C265.628 199.737 267.043 200.834 267.433 202.183L269.685 209.916C270.079 211.266 269.302 212.362 267.954 212.362H260.227C258.878 212.362 257.463 211.27 257.073 209.916L254.821 202.183C254.427 200.834 255.204 199.737 256.552 199.737Z" fill="white"/>
<path d="M240.423 199.737H248.151C249.499 199.737 250.914 200.834 251.305 202.183L253.556 209.916C253.95 211.266 253.173 212.362 251.825 212.362H244.098C242.749 212.362 241.334 211.27 240.944 209.916L238.692 202.183C238.298 200.834 239.075 199.737 240.423 199.737Z" fill="white"/>
<path d="M261.697 217.412H269.424C270.772 217.412 272.188 218.505 272.578 219.858L274.829 227.591C275.223 228.94 274.447 230.037 273.098 230.037H265.371C264.023 230.037 262.607 228.94 262.217 227.591L259.966 219.858C259.572 218.509 260.348 217.412 261.697 217.412Z" fill="white"/>
<path d="M245.568 217.412H253.295C254.643 217.412 256.059 218.505 256.449 219.858L258.7 227.591C259.095 228.94 258.318 230.037 256.97 230.037H249.242C247.894 230.037 246.478 228.94 246.088 227.591L243.837 219.858C243.443 218.509 244.219 217.412 245.568 217.412Z" fill="white"/>
<path d="M266.841 235.087H274.569C275.917 235.087 277.332 236.184 277.723 237.533L279.974 245.266C280.368 246.615 279.591 247.712 278.243 247.712H270.516C269.167 247.712 267.752 246.615 267.362 245.266L265.11 237.533C264.716 236.184 265.493 235.087 266.841 235.087Z" fill="white"/>
<path d="M250.712 235.087H258.44C259.788 235.087 261.203 236.184 261.594 237.533L263.845 245.266C264.239 246.615 263.462 247.712 262.114 247.712H254.387C253.038 247.712 251.623 246.615 251.233 245.266L248.982 237.533C248.587 236.184 249.364 235.087 250.712 235.087Z" fill="white"/>
<path d="M381.062 248.584H290.167C289.781 248.584 289.438 248.328 289.327 247.953L265.073 164.631C264.998 164.367 265.049 164.083 265.211 163.862C265.372 163.641 265.637 163.511 265.909 163.511H356.803C357.19 163.511 357.533 163.767 357.643 164.142L381.898 247.464C381.972 247.728 381.921 248.012 381.76 248.233C381.594 248.454 381.338 248.584 381.062 248.584ZM290.821 246.837H379.895L356.149 165.262H267.076L290.821 246.837Z" fill="#22C55E" fill-opacity="0.09"/>
<path d="M365.04 226.372C364.855 226.372 364.666 226.313 364.504 226.19L344.37 210.567C342.82 209.363 340.928 208.819 339.185 209.079C337.801 209.284 336.622 209.987 335.862 211.06L330.697 218.335C330.015 219.294 328.97 219.921 327.76 220.103C326.34 220.312 324.811 219.886 323.577 218.927L300.458 200.987C298.908 199.784 297.02 199.239 295.273 199.5C293.893 199.705 292.711 200.407 291.95 201.48L290.578 203.414C290.298 203.808 289.754 203.899 289.36 203.619C288.965 203.339 288.875 202.794 289.155 202.4L290.527 200.466C291.567 199.003 293.164 198.044 295.021 197.768C297.233 197.44 299.606 198.111 301.53 199.606L324.649 217.546C325.509 218.213 326.549 218.513 327.507 218.374C328.028 218.296 328.761 218.051 329.278 217.325L334.442 210.05C335.483 208.586 337.08 207.627 338.937 207.351C341.148 207.024 343.522 207.694 345.446 209.19L365.58 224.813C365.959 225.109 366.03 225.658 365.734 226.04C365.561 226.261 365.304 226.38 365.044 226.38L365.04 226.372Z" fill="#22C55E" fill-opacity="0.09"/>
<path d="M339.489 198.159C333.476 198.159 327.164 193.275 325.418 187.274C324.519 184.185 324.921 181.285 326.557 179.107C328.107 177.04 330.579 175.899 333.52 175.899C339.532 175.899 345.844 180.784 347.591 186.785C348.489 189.874 348.083 192.774 346.451 194.952C344.902 197.019 342.43 198.159 339.489 198.159ZM333.52 177.651C331.142 177.651 329.167 178.543 327.953 180.156C326.66 181.885 326.352 184.24 327.093 186.785C328.639 192.091 334.198 196.411 339.489 196.411C341.866 196.411 343.841 195.52 345.055 193.906C346.349 192.178 346.656 189.823 345.915 187.278C344.369 181.971 338.811 177.651 333.52 177.651Z" fill="#22C55E" fill-opacity="0.09"/>
<path d="M195.721 190.004H304.953C308.998 190.004 313.232 193.286 314.411 197.33L335.811 270.848C336.99 274.896 334.664 278.175 330.623 278.175H221.391C217.346 278.175 213.112 274.892 211.933 270.848L190.533 197.33C189.354 193.282 191.68 190.004 195.721 190.004Z" fill="white"/>
<path d="M330.623 279.05H221.391C216.991 279.05 212.375 275.48 211.097 271.093L189.697 197.575C189.031 195.291 189.335 193.14 190.549 191.519C191.704 189.976 193.541 189.128 195.725 189.128H304.957C309.357 189.128 313.973 192.698 315.251 197.086L336.651 270.603C337.317 272.888 337.013 275.038 335.799 276.66C334.644 278.202 332.807 279.05 330.623 279.05ZM195.721 190.876C194.101 190.876 192.761 191.475 191.945 192.568C191.065 193.74 190.864 195.342 191.373 197.086L212.773 270.603C213.849 274.296 217.713 277.303 221.391 277.303H330.623C332.243 277.303 333.583 276.703 334.4 275.61C335.279 274.438 335.48 272.837 334.971 271.093L313.571 197.575C312.495 193.882 308.631 190.876 304.953 190.876H195.721Z" fill="#22C55E" fill-opacity="0.09"/>
<path d="M315.227 273.839C314.849 273.839 314.498 273.59 314.388 273.208L291.758 195.465C291.623 195.003 291.888 194.518 292.353 194.38C292.814 194.245 293.299 194.51 293.437 194.975L316.067 272.719C316.201 273.18 315.937 273.665 315.472 273.804C315.389 273.827 315.306 273.839 315.227 273.839Z" fill="#22C55E" fill-opacity="0.09"/>
<path d="M223.122 265.261H304.385C305.694 265.261 306.447 264.2 306.064 262.89L289.301 205.296C288.918 203.986 287.55 202.925 286.238 202.925H204.974C203.665 202.925 202.912 203.986 203.295 205.296L220.058 262.89C220.441 264.2 221.809 265.261 223.122 265.261Z" fill="#22C55E" fill-opacity="0.09"/>
<path d="M316.423 240.756C312.811 240.756 309.161 237.935 308.112 234.337C307.58 232.502 307.836 230.699 308.814 229.39C309.764 228.123 311.266 227.429 313.048 227.429C316.659 227.429 320.31 230.25 321.359 233.848C321.895 235.682 321.639 237.485 320.657 238.795C319.707 240.062 318.205 240.756 316.419 240.756H316.423ZM309.787 233.844C310.615 236.688 313.592 239.004 316.423 239.004C317.645 239.004 318.65 238.555 319.261 237.742C319.92 236.866 320.07 235.655 319.683 234.333C318.855 231.488 315.879 229.173 313.048 229.173C311.83 229.173 310.82 229.622 310.209 230.435C309.551 231.311 309.401 232.522 309.784 233.844H309.787Z" fill="#22C55E" fill-opacity="0.09"/>
<path d="M311.244 209.325C310.866 209.325 310.515 209.076 310.404 208.693L308.816 203.229C308.575 202.401 307.649 201.675 306.832 201.675H302.567C302.086 201.675 301.691 201.284 301.691 200.799C301.691 200.313 302.082 199.923 302.567 199.923H306.832C308.425 199.923 310.03 201.158 310.491 202.74L312.08 208.204C312.214 208.666 311.95 209.151 311.485 209.289C311.402 209.313 311.319 209.325 311.24 209.325H311.244Z" fill="#22C55E" fill-opacity="0.09"/>
<path d="M313.167 223.421H308.901C307.308 223.421 305.704 222.186 305.243 220.608L301.773 208.693C301.639 208.231 301.903 207.746 302.368 207.608C302.83 207.474 303.319 207.738 303.453 208.204L306.922 220.119C307.163 220.947 308.089 221.673 308.905 221.673H313.171C313.372 221.673 313.648 221.63 313.806 221.413C313.948 221.224 313.975 220.936 313.881 220.604C313.747 220.143 314.011 219.657 314.476 219.519C314.941 219.385 315.426 219.649 315.56 220.115C315.809 220.975 315.682 221.827 315.209 222.458C314.752 223.066 314.011 223.417 313.175 223.417L313.167 223.421Z" fill="#22C55E" fill-opacity="0.09"/>
<path d="M309.063 209.324H304.797C304.316 209.324 303.926 208.933 303.926 208.448C303.926 207.963 304.316 207.572 304.797 207.572H309.063C309.544 207.572 309.938 207.963 309.938 208.448C309.938 208.933 309.548 209.324 309.063 209.324Z" fill="#22C55E" fill-opacity="0.09"/>
<path d="M310.258 213.435H305.992C305.511 213.435 305.117 213.045 305.117 212.559C305.117 212.074 305.507 211.688 305.992 211.688H310.258C310.739 211.688 311.133 212.078 311.133 212.559C311.133 213.041 310.743 213.435 310.258 213.435Z" fill="#22C55E" fill-opacity="0.09"/>
<path d="M326.218 268.26H321.952C320.359 268.26 318.755 267.025 318.294 265.447L317.34 262.173C317.205 261.711 317.47 261.226 317.935 261.088C318.396 260.953 318.881 261.218 319.019 261.683L319.973 264.958C320.214 265.787 321.14 266.512 321.952 266.512H326.218C326.699 266.512 327.093 266.903 327.093 267.388C327.093 267.874 326.703 268.264 326.218 268.264V268.26Z" fill="#22C55E" fill-opacity="0.09"/>
<path d="M326.571 261.975C326.193 261.975 325.842 261.727 325.732 261.344L321.864 248.064C321.624 247.235 320.697 246.509 319.885 246.509H315.619C315.418 246.509 315.142 246.553 314.984 246.77C314.842 246.959 314.815 247.247 314.91 247.579L315.663 250.167C315.797 250.628 315.532 251.114 315.067 251.252C314.602 251.39 314.117 251.122 313.987 250.656L313.234 248.068C312.986 247.208 313.112 246.356 313.585 245.724C314.042 245.117 314.783 244.766 315.619 244.766H319.885C321.478 244.766 323.082 246.001 323.544 247.579L327.411 260.859C327.545 261.32 327.281 261.806 326.816 261.944C326.733 261.967 326.65 261.979 326.571 261.979V261.975Z" fill="#22C55E" fill-opacity="0.09"/>
<path d="M321.037 250.459H315.309C314.828 250.459 314.434 250.068 314.434 249.583C314.434 249.098 314.824 248.707 315.309 248.707H321.037C321.518 248.707 321.913 249.098 321.913 249.583C321.913 250.068 321.522 250.459 321.037 250.459Z" fill="#22C55E" fill-opacity="0.09"/>
<path d="M322.596 255.805H316.867C316.386 255.805 315.992 255.415 315.992 254.93C315.992 254.444 316.383 254.058 316.867 254.058H322.596C323.077 254.058 323.471 254.448 323.471 254.93C323.471 255.411 323.081 255.805 322.596 255.805Z" fill="#22C55E" fill-opacity="0.09"/>
<path d="M345.575 136.998H387.086C389.554 136.998 392.14 139.002 392.858 141.472L400.483 167.665C401.2 170.135 399.785 172.139 397.313 172.139H355.802C353.334 172.139 350.748 170.135 350.03 167.665L342.405 141.472C341.688 139.002 343.103 136.998 345.575 136.998Z" fill="white"/>
<path d="M397.318 173.015H355.807C352.933 173.015 350.027 170.774 349.195 167.91L341.57 141.717C341.141 140.237 341.35 138.781 342.146 137.72C342.919 136.69 344.137 136.126 345.576 136.126H387.087C389.961 136.126 392.867 138.367 393.698 141.231L401.323 167.424C401.753 168.904 401.544 170.36 400.748 171.421C399.975 172.451 398.757 173.015 397.318 173.015ZM345.576 137.874C344.697 137.874 343.975 138.193 343.542 138.769C343.073 139.397 342.966 140.269 343.246 141.227L350.871 167.421C351.478 169.504 353.737 171.263 355.807 171.263H397.318C398.197 171.263 398.918 170.944 399.352 170.368C399.821 169.74 399.928 168.868 399.648 167.91L392.023 141.717C391.416 139.633 389.157 137.874 387.087 137.874H345.576Z" fill="#22C55E" fill-opacity="0.09"/>
<path d="M398.595 148.179C398.217 148.179 397.866 147.93 397.756 147.548L397.121 145.366C396.987 144.904 397.251 144.419 397.716 144.281C398.181 144.147 398.662 144.411 398.796 144.877L399.431 147.058C399.565 147.52 399.301 148.005 398.836 148.143C398.753 148.167 398.67 148.179 398.591 148.179H398.595Z" fill="#22C55E" fill-opacity="0.09"/>
<path d="M347.182 144.877C346.803 144.877 346.452 144.628 346.342 144.245L344.43 137.68C344 136.201 344.209 134.745 345.005 133.684C345.778 132.654 346.996 132.09 348.435 132.09H389.946C392.82 132.09 395.726 134.331 396.558 137.195L397.918 141.874C398.052 142.336 397.788 142.821 397.323 142.959C396.861 143.097 396.372 142.829 396.238 142.364L394.878 137.684C394.271 135.601 392.012 133.842 389.942 133.842H348.431C347.552 133.842 346.831 134.161 346.397 134.737C345.928 135.364 345.821 136.236 346.101 137.195L348.014 143.76C348.148 144.222 347.883 144.707 347.418 144.845C347.335 144.869 347.253 144.881 347.174 144.881L347.182 144.877Z" fill="#22C55E" fill-opacity="0.09"/>
<path d="M350.258 155.447C349.88 155.447 349.529 155.198 349.419 154.816L347.625 148.649C347.491 148.188 347.755 147.702 348.22 147.564C348.681 147.43 349.166 147.694 349.3 148.16L351.094 154.327C351.228 154.788 350.964 155.273 350.499 155.411C350.416 155.435 350.333 155.447 350.254 155.447H350.258Z" fill="#22C55E" fill-opacity="0.09"/>
<path d="M295.913 254.242C295.689 254.242 295.468 254.155 295.294 253.985L256.019 214.686C255.676 214.346 255.676 213.79 256.019 213.451C256.362 213.108 256.914 213.108 257.253 213.451L296.528 252.75C296.871 253.09 296.871 253.646 296.528 253.985C296.359 254.155 296.134 254.242 295.909 254.242H295.913Z" fill="white"/>
<path d="M266.847 235.96C266.622 235.96 266.401 235.873 266.228 235.703L243.503 212.962C243.16 212.623 243.16 212.066 243.503 211.727C243.846 211.384 244.398 211.384 244.737 211.727L267.462 234.468C267.805 234.807 267.805 235.364 267.462 235.703C267.292 235.873 267.068 235.96 266.843 235.96H266.847Z" fill="white"/>
<path d="M429.817 186.709C429.451 186.709 429.112 186.476 428.989 186.109C425.023 174.19 412.123 164.493 400.233 164.493H385.685C373.096 164.493 359.451 154.258 355.268 141.681C355.114 141.223 355.363 140.73 355.82 140.576C356.277 140.422 356.774 140.671 356.924 141.128C360.89 153.047 373.79 162.745 385.681 162.745H400.229C412.817 162.745 426.462 172.979 430.645 185.557C430.799 186.015 430.551 186.512 430.093 186.662C430.003 186.693 429.908 186.705 429.817 186.705V186.709Z" fill="#22C55E" fill-opacity="0.09"/>
<path d="M354.891 142.549C356.275 143.587 357.959 143.587 358.652 142.549C359.346 141.511 358.787 139.827 357.399 138.785C356.015 137.747 354.331 137.747 353.638 138.785C352.944 139.823 353.504 141.507 354.891 142.549Z" fill="white"/>
<path d="M357.025 144.206C356.134 144.206 355.196 143.87 354.368 143.251C352.594 141.917 351.955 139.744 352.913 138.303C353.307 137.708 353.942 137.309 354.699 137.183C355.744 137.005 356.919 137.333 357.928 138.09C359.706 139.424 360.345 141.598 359.383 143.038C358.989 143.63 358.354 144.028 357.597 144.158C357.412 144.19 357.222 144.206 357.029 144.206H357.025ZM355.267 138.879C355.172 138.879 355.082 138.887 354.991 138.903C354.707 138.95 354.494 139.077 354.364 139.27C353.99 139.834 354.325 141.034 355.413 141.85C356.028 142.312 356.737 142.529 357.297 142.434C357.581 142.387 357.794 142.261 357.924 142.067C358.303 141.503 357.964 140.304 356.875 139.487C356.355 139.096 355.775 138.883 355.267 138.883V138.879Z" fill="#22C55E" fill-opacity="0.09"/>
<path d="M428.68 187.625C430.064 188.663 431.748 188.663 432.442 187.625C433.135 186.587 432.576 184.903 431.188 183.861C429.804 182.824 428.121 182.824 427.427 183.861C426.733 184.899 427.293 186.584 428.68 187.625Z" fill="white"/>
<path d="M430.818 189.278C429.927 189.278 428.989 188.943 428.161 188.323C426.387 186.99 425.748 184.816 426.706 183.376C427.1 182.78 427.735 182.381 428.492 182.255C429.533 182.078 430.712 182.405 431.717 183.163C433.495 184.496 434.134 186.67 433.172 188.11C432.778 188.702 432.143 189.1 431.386 189.231C431.201 189.262 431.011 189.278 430.818 189.278ZM429.06 183.956C428.965 183.956 428.875 183.964 428.784 183.979C428.5 184.027 428.287 184.153 428.157 184.346C427.782 184.91 428.118 186.11 429.206 186.927C429.821 187.388 430.53 187.605 431.09 187.51C431.374 187.463 431.587 187.337 431.717 187.144C432.096 186.579 431.757 185.38 430.668 184.563C430.148 184.173 429.568 183.96 429.06 183.96V183.956Z" fill="#22C55E" fill-opacity="0.09"/>
<path d="M387.308 162.335L390.328 157.905C390.856 157.127 392.09 157.096 393.083 157.83L398.761 162.02C399.754 162.753 400.133 163.977 399.6 164.754L396.58 169.184C396.052 169.962 394.818 169.993 393.825 169.259L388.147 165.069C387.154 164.336 386.775 163.113 387.308 162.335Z" fill="white"/>
<path d="M395.319 170.663C394.633 170.663 393.92 170.419 393.304 169.965L387.627 165.775C386.239 164.749 385.778 163.025 386.582 161.845L389.602 157.415C389.945 156.91 390.486 156.574 391.124 156.468C391.94 156.33 392.843 156.57 393.6 157.131L399.277 161.321C400.665 162.346 401.126 164.071 400.322 165.25L397.302 169.681C396.959 170.186 396.419 170.521 395.784 170.628C395.631 170.655 395.477 170.667 395.323 170.667L395.319 170.663ZM388.029 162.828C387.801 163.163 388.029 163.893 388.668 164.366L394.345 168.556C394.716 168.833 395.146 168.963 395.493 168.9C395.662 168.872 395.788 168.801 395.863 168.691L398.883 164.26C399.112 163.925 398.883 163.195 398.244 162.721L392.567 158.531C392.197 158.259 391.771 158.129 391.42 158.188C391.25 158.216 391.124 158.287 391.049 158.397L388.029 162.828Z" fill="#22C55E" fill-opacity="0.09"/>
<path d="M400.799 205.256H413.254C413.841 205.256 414.259 204.909 414.318 204.373L417.169 194.939C417.212 194.541 417.054 194.083 416.731 193.689L394.728 164.272C393.813 163.148 392.217 163.148 392.047 164.272L389.618 193.689C389.559 194.083 389.705 194.541 390.013 194.939L399.14 204.373C399.557 204.909 400.208 205.256 400.795 205.256H400.799ZM397.456 191.16C396.557 188.461 398.016 186.271 400.713 186.271C403.409 186.271 406.323 188.461 407.222 191.16C408.121 193.858 406.662 196.048 403.965 196.048C401.269 196.048 398.355 193.858 397.456 191.16Z" fill="white"/>
<path d="M413.26 206.132H400.805C399.962 206.132 399.078 205.679 398.491 204.949L389.396 195.547C389.372 195.523 389.352 195.5 389.333 195.476C388.875 194.888 388.67 194.19 388.765 193.558L391.185 164.197C391.304 163.392 391.804 162.828 392.53 162.631C393.508 162.363 394.667 162.8 395.416 163.716L417.439 193.164C417.884 193.708 418.113 194.403 418.046 195.034C418.038 195.089 418.03 195.141 418.014 195.192L415.184 204.558C415.038 205.489 414.261 206.128 413.26 206.132ZM390.685 194.371L399.772 203.765C399.796 203.789 399.816 203.812 399.835 203.836C400.084 204.16 400.482 204.385 400.801 204.385H413.256C413.441 204.385 413.449 204.325 413.453 204.278C413.461 204.227 413.469 204.171 413.484 204.12L416.303 194.789C416.295 194.659 416.232 194.458 416.055 194.241L394.032 164.793C393.689 164.371 393.212 164.256 392.987 164.315C392.928 164.331 392.924 164.335 392.916 164.398L390.496 193.76C390.472 193.925 390.515 194.134 390.685 194.371ZM403.967 196.92C400.876 196.92 397.651 194.509 396.63 191.436C396.098 189.83 396.267 188.252 397.095 187.104C397.888 186.003 399.173 185.399 400.719 185.399C403.809 185.399 407.034 187.81 408.056 190.884C408.588 192.489 408.418 194.067 407.59 195.216C406.798 196.316 405.513 196.92 403.967 196.92ZM398.286 190.884C399.059 193.207 401.661 195.172 403.967 195.172C404.937 195.172 405.718 194.825 406.175 194.194C406.68 193.495 406.758 192.517 406.396 191.436C405.623 189.112 403.021 187.147 400.715 187.147C399.745 187.147 398.964 187.494 398.511 188.126C398.006 188.824 397.927 189.802 398.29 190.884H398.286Z" fill="#22C55E" fill-opacity="0.09"/>
<path d="M405.491 215.542H415.407C417.224 215.542 418.206 214.066 417.603 212.247L417.22 211.099C416.617 209.28 414.65 207.805 412.832 207.805H402.917C401.099 207.805 400.117 209.28 400.721 211.099L401.103 212.247C401.706 214.066 403.674 215.542 405.491 215.542Z" fill="#22C55E" fill-opacity="0.09"/>
<path d="M399.403 183.202C399.04 183.202 398.701 182.973 398.575 182.61C394.561 170.798 392.669 164.731 392.897 164.41L393.607 164.919L394.467 164.773C394.624 165.471 397.999 175.489 400.227 182.046C400.384 182.504 400.14 183.001 399.682 183.155C399.588 183.186 399.493 183.202 399.403 183.202Z" fill="#22C55E" fill-opacity="0.09"/>
<path d="M252.578 70.5138L283.107 52.7611C286.293 50.9088 287.374 46.8231 285.524 43.6354L274.13 24.0138C272.279 20.8261 268.196 19.7436 265.011 21.5959L234.482 39.3486C231.296 41.2009 230.214 45.2866 232.065 48.4743L243.459 68.0959C245.31 71.2836 249.393 72.3661 252.578 70.5138Z" fill="white"/>
<path d="M262.362 49.7927C262.217 49.7927 262.067 49.7574 261.926 49.6913C261.446 49.4489 261.248 48.8627 261.49 48.3823L270.829 29.7088C271.071 29.2284 271.657 29.0301 272.137 29.2725C272.616 29.5149 272.815 30.1011 272.572 30.5814L263.234 49.255C263.062 49.5988 262.719 49.7927 262.362 49.7927Z" fill="#22C55E" fill-opacity="0.09"/>
<path d="M262.263 49.8538C262.263 49.8538 262.227 49.8538 262.21 49.8538L241.375 48.7299C240.838 48.6991 240.424 48.2407 240.455 47.703C240.486 47.1653 240.961 46.751 241.481 46.7819L262.315 47.9058C262.853 47.9366 263.266 48.3949 263.236 48.9326C263.209 49.4527 262.778 49.8582 262.263 49.8582V49.8538Z" fill="#22C55E" fill-opacity="0.09"/>
<path d="M249.236 72.2897C246.634 72.2897 244.099 70.9443 242.699 68.5337L231.305 48.9135C230.292 47.1696 230.02 45.1338 230.537 43.1848C231.053 41.2358 232.295 39.6024 234.038 38.5885L264.565 20.8383C268.164 18.7433 272.789 19.9743 274.878 23.5724L286.272 43.1927C287.285 44.9366 287.557 46.9723 287.041 48.9214C286.524 50.8704 285.282 52.5037 283.536 53.5177L253.009 71.2679C251.818 71.9583 250.517 72.2897 249.232 72.2897H249.236ZM268.349 21.5682C267.36 21.5682 266.358 21.8207 265.444 22.3533L234.917 40.1035C233.576 40.8807 232.622 42.1354 232.224 43.6346C231.826 45.1338 232.039 46.6962 232.815 48.0376L244.209 67.6578C244.986 68.9993 246.24 69.954 247.738 70.3525C249.236 70.751 250.797 70.538 252.138 69.7607L282.665 52.0106C284.005 51.2333 284.959 49.9787 285.357 48.4795C285.756 46.9802 285.543 45.4179 284.766 44.0765L273.372 24.4562C272.296 22.6058 270.348 21.5682 268.349 21.5682Z" fill="#22C55E" fill-opacity="0.09"/>
<path fill-rule="evenodd" clip-rule="evenodd" d="M629.54 97.1462C631.782 95.8048 633.366 94.3547 634.513 93.1617C645.437 81.7096 640.353 67.4316 631.905 56.463C629.643 53.5229 625.182 49.7805 620.698 48.5017C617.547 47.6018 614.391 47.8919 611.891 50.3307C609.156 52.9791 608.347 57.2264 608.674 61.8227C609.143 68.4708 611.965 75.8492 614.229 79.8046C616.843 84.3661 621.633 90.9665 627.139 96.7852C624.606 98.0417 621.367 99.1174 617.185 99.6218C615.327 99.8527 613.159 99.6315 610.908 99.0861C611.436 95.5988 611.298 91.8513 610.396 87.9803C609.633 84.7275 606.749 78.1998 602.975 74.1083C600.279 71.1898 597.123 69.533 593.958 70.7158C590.028 72.1905 588.779 75.3088 589.018 78.8459C589.353 83.8266 592.759 89.6552 595.323 92.3392C598.308 95.4604 603.835 98.562 609.213 100.134C606.808 111.824 596.416 120.107 582.987 119.087C582.588 119.061 582.233 119.366 582.195 119.767C582.167 120.176 582.478 120.534 582.877 120.56C597.086 121.636 608.099 112.886 610.659 100.519C613.056 101.094 615.378 101.333 617.364 101.088C621.971 100.53 625.496 99.3119 628.209 97.8981C629.259 98.9705 630.333 100.01 631.426 101.001C636.328 105.453 641.511 108.823 646.04 109.484C656.505 111.013 664.294 104.685 668.395 95.9766C672.454 87.3499 672.873 76.4153 668.765 68.6867C668.573 68.3265 668.122 68.1869 667.764 68.3801C667.407 68.5734 667.268 69.0197 667.46 69.3797C671.37 76.7343 670.929 87.1436 667.059 95.3465C663.231 103.468 656.013 109.447 646.257 108.025C641.945 107.389 637.078 104.138 632.417 99.9065C631.447 99.0254 630.489 98.1034 629.54 97.1462ZM609.462 98.6995C609.932 95.432 609.8 91.9323 608.951 88.3116C608.225 85.2153 605.492 79.0122 601.885 75.1066C599.65 72.6856 597.102 71.1145 594.48 72.1015C591.271 73.2977 590.3 75.8682 590.495 78.7496C590.795 83.3847 594.001 88.8171 596.394 91.321C599.196 94.2547 604.401 97.2007 609.462 98.6995ZM628.484 96.0584C630.738 94.748 632.311 93.3129 633.443 92.1409C643.802 81.2843 638.741 67.7616 630.735 57.364C628.629 54.6246 624.482 51.1196 620.291 49.9211C617.666 49.1748 615.009 49.3522 612.918 51.3889C610.466 53.7612 609.853 57.5984 610.143 61.7142C610.595 68.1301 613.33 75.257 615.512 79.0719C618.126 83.6336 622.946 90.2621 628.484 96.0584Z" fill="#22C55E"/>
</g>
<defs>
<clipPath id="clip0_7211_11436">
<rect width="724" height="722" fill="white" transform="translate(0 0.113281)"/>
</clipPath>
</defs>
</svg>
