<svg width="218" height="199" viewBox="0 0 218 199" fill="none" xmlns="http://www.w3.org/2000/svg">
<path fill-rule="evenodd" clip-rule="evenodd" d="M214.266 95.428C214.003 96.134 213.252 98.1687 213.147 98.4793C212.859 99.3512 212.837 99.8291 212.869 100.317C212.901 100.709 212.987 101.111 212.955 101.85C212.932 102.257 213.262 102.6 213.669 102.615C214.077 102.631 214.412 102.312 214.435 101.905C214.454 101.236 214.409 100.811 214.364 100.44C214.318 100.012 214.301 99.6781 214.55 98.9438C214.668 98.5855 215.542 96.6634 215.762 95.7109C215.879 95.2142 215.806 94.8432 215.71 94.6814C215.571 94.4496 215.324 94.2325 214.943 94.0862C214.452 93.9005 213.637 93.7985 212.726 93.6636C211.869 93.539 210.904 93.379 210.059 93.0276C209.35 92.7276 208.734 92.2895 208.427 91.552C208.273 91.1751 207.851 90.9926 207.472 91.1462C207.094 91.2998 206.909 91.7321 207.063 92.109C207.51 93.2249 208.413 93.9353 209.491 94.3885C210.445 94.7888 211.533 94.9841 212.512 95.125C213.096 95.2119 213.64 95.2777 214.062 95.3692C214.13 95.3834 214.198 95.4057 214.266 95.428Z" fill="#22C55E"/>
<path fill-rule="evenodd" clip-rule="evenodd" d="M127.932 135.989C151.875 134.303 176.746 128.426 196.049 114.187C203.072 109.006 208.523 102.56 214.163 96.0106C214.559 95.552 214.508 94.8553 214.047 94.4567C213.585 94.0597 212.888 94.111 212.491 94.5736C206.96 100.996 201.628 107.332 194.74 112.412C175.711 126.449 151.166 132.173 127.567 133.806L127.513 133.445C126.933 129.524 123.252 125.606 118.047 122.348C110.586 117.677 100.056 114.258 92.1737 113.685C88.6316 113.429 85.6045 113.759 83.5535 114.731C81.9538 115.488 80.8951 116.63 80.4775 118.142C79.59 121.363 81.7162 124.54 85.7538 127.224C94.1965 132.838 110.928 136.658 118.549 136.448C120.929 136.381 123.327 136.279 125.735 136.132C125.856 136.819 125.971 137.492 126.054 138.152C126.284 140.032 126.242 141.83 125.164 143.731C123.481 146.692 120.586 148.862 117.25 150.497C112.043 153.045 105.753 154.272 100.969 154.933C74.3229 158.616 53.6707 148.729 37.7156 135.762C21.6045 122.664 10.2497 106.428 2.3412 97.6211C1.93531 97.1673 1.23879 97.1325 0.78498 97.5384C0.331173 97.9443 0.293908 98.6423 0.702245 99.0946C8.66103 107.959 20.1065 124.289 36.3268 137.472C52.703 150.787 73.9173 160.898 101.27 157.119C106.254 156.431 112.796 155.131 118.219 152.478C121.972 150.639 125.188 148.151 127.082 144.819C128.78 141.828 128.449 139.06 127.932 135.989ZM125.358 133.946L125.333 133.766C124.826 130.338 121.429 127.066 116.877 124.218C109.708 119.729 99.5915 116.436 92.013 115.886C89.4147 115.696 87.1277 115.828 85.3916 116.376C83.9601 116.829 82.9272 117.552 82.6053 118.728C82.2961 119.836 82.5785 120.912 83.2532 121.945C84.0432 123.159 85.3428 124.303 86.9728 125.388C95.0861 130.782 111.164 134.446 118.487 134.243C120.762 134.179 123.054 134.082 125.358 133.946Z" fill="#22C55E"/>
</svg>
