<svg width="143" height="110" viewBox="0 0 143 110" fill="none" xmlns="http://www.w3.org/2000/svg">
<g opacity="0.5">
<g opacity="0.8">
<circle cx="2.95652" cy="3.62937" r="2.95652" fill="#22C55E"/>
<circle cx="18.48" cy="3.62937" r="2.95652" fill="#22C55E"/>
<circle cx="33.9995" cy="3.62937" r="2.95652" fill="#22C55E"/>
<circle cx="49.5229" cy="3.62937" r="2.95652" fill="#22C55E"/>
<circle cx="65.0425" cy="3.62937" r="2.95652" fill="#22C55E"/>
<circle cx="2.95652" cy="18.4116" r="2.95652" fill="#22C55E"/>
<circle cx="18.48" cy="18.4116" r="2.95652" fill="#22C55E"/>
<circle cx="33.9995" cy="18.4116" r="2.95652" fill="#22C55E"/>
<circle cx="49.9565" cy="17.9565" r="2.95652" fill="#22C55E"/>
<circle cx="65.0425" cy="18.4116" r="2.95652" fill="#22C55E"/>
<circle cx="2.95652" cy="33.1948" r="2.95652" fill="#22C55E"/>
<circle cx="18.48" cy="33.1948" r="2.95652" fill="#22C55E"/>
<circle cx="33.9995" cy="33.1948" r="2.95652" fill="#22C55E"/>
<circle cx="49.5229" cy="33.1948" r="2.95652" fill="#22C55E"/>
<circle cx="65.0425" cy="33.1948" r="2.95652" fill="#22C55E"/>
<circle cx="2.95652" cy="47.977" r="2.95652" fill="#22C55E"/>
<circle cx="18.48" cy="47.977" r="2.95652" fill="#22C55E"/>
<circle cx="33.9995" cy="47.977" r="2.95652" fill="#22C55E"/>
<circle cx="49.5229" cy="47.977" r="2.95652" fill="#22C55E"/>
<circle cx="65.0425" cy="47.977" r="2.95652" fill="#22C55E"/>
</g>
<g opacity="0.8">
<circle cx="77.9565" cy="3.62937" r="2.95652" fill="#22C55E"/>
<circle cx="93.48" cy="3.62937" r="2.95652" fill="#22C55E"/>
<circle cx="108.999" cy="3.62937" r="2.95652" fill="#22C55E"/>
<circle cx="124.523" cy="3.62937" r="2.95652" fill="#22C55E"/>
<circle cx="140.042" cy="3.62937" r="2.95652" fill="#22C55E"/>
<circle cx="77.9565" cy="18.4116" r="2.95652" fill="#22C55E"/>
<circle cx="93.48" cy="18.4116" r="2.95652" fill="#22C55E"/>
<circle cx="108.999" cy="18.4116" r="2.95652" fill="#22C55E"/>
<circle cx="124.523" cy="18.4116" r="2.95652" fill="#22C55E"/>
<circle cx="140.042" cy="18.4116" r="2.95652" fill="#22C55E"/>
<circle cx="77.9565" cy="33.1948" r="2.95652" fill="#22C55E"/>
<circle cx="93.48" cy="33.1948" r="2.95652" fill="#22C55E"/>
<circle cx="108.999" cy="33.1948" r="2.95652" fill="#22C55E"/>
<circle cx="124.523" cy="33.1948" r="2.95652" fill="#22C55E"/>
<circle cx="140.042" cy="33.1948" r="2.95652" fill="#22C55E"/>
<circle cx="77.9565" cy="47.977" r="2.95652" fill="#22C55E"/>
<circle cx="93.48" cy="47.977" r="2.95652" fill="#22C55E"/>
<circle cx="108.999" cy="47.977" r="2.95652" fill="#22C55E"/>
<circle cx="124.523" cy="47.977" r="2.95652" fill="#22C55E"/>
<circle cx="140.042" cy="47.977" r="2.95652" fill="#22C55E"/>
</g>
<g opacity="0.8">
<circle cx="2.95652" cy="62.6294" r="2.95652" fill="#22C55E"/>
<circle cx="18.48" cy="62.6294" r="2.95652" fill="#22C55E"/>
<circle cx="33.9995" cy="62.6294" r="2.95652" fill="#22C55E"/>
<circle cx="49.5229" cy="62.6294" r="2.95652" fill="#22C55E"/>
<circle cx="65.0425" cy="62.6294" r="2.95652" fill="#22C55E"/>
<circle cx="2.95652" cy="77.4116" r="2.95652" fill="#22C55E"/>
<circle cx="18.48" cy="77.4116" r="2.95652" fill="#22C55E"/>
<circle cx="33.9995" cy="77.4116" r="2.95652" fill="#22C55E"/>
<circle cx="49.5229" cy="77.4116" r="2.95652" fill="#22C55E"/>
<circle cx="65.0425" cy="77.4116" r="2.95652" fill="#22C55E"/>
<circle cx="2.95652" cy="92.1948" r="2.95652" fill="#22C55E"/>
<circle cx="18.48" cy="92.1948" r="2.95652" fill="#22C55E"/>
<circle cx="33.9995" cy="92.1948" r="2.95652" fill="#22C55E"/>
<circle cx="49.5229" cy="92.1948" r="2.95652" fill="#22C55E"/>
<circle cx="65.0425" cy="92.1948" r="2.95652" fill="#22C55E"/>
<circle cx="2.95652" cy="106.977" r="2.95652" fill="#22C55E"/>
<circle cx="18.48" cy="106.977" r="2.95652" fill="#22C55E"/>
<circle cx="33.9995" cy="106.977" r="2.95652" fill="#22C55E"/>
<circle cx="49.5229" cy="106.977" r="2.95652" fill="#22C55E"/>
<circle cx="65.0425" cy="106.977" r="2.95652" fill="#22C55E"/>
</g>
<g opacity="0.8">
<circle cx="77.9565" cy="62.6294" r="2.95652" fill="#22C55E"/>
<circle cx="93.48" cy="62.6294" r="2.95652" fill="#22C55E"/>
<circle cx="108.999" cy="62.6294" r="2.95652" fill="#22C55E"/>
<circle cx="124.523" cy="62.6294" r="2.95652" fill="#22C55E"/>
<circle cx="140.042" cy="62.6294" r="2.95652" fill="#22C55E"/>
<circle cx="77.9565" cy="77.4116" r="2.95652" fill="#22C55E"/>
<circle cx="93.48" cy="77.4116" r="2.95652" fill="#22C55E"/>
<circle cx="108.999" cy="77.4116" r="2.95652" fill="#22C55E"/>
<circle cx="124.523" cy="77.4116" r="2.95652" fill="#22C55E"/>
<circle cx="140.042" cy="77.4116" r="2.95652" fill="#22C55E"/>
<circle cx="77.9565" cy="92.1948" r="2.95652" fill="#22C55E"/>
<circle cx="93.48" cy="92.1948" r="2.95652" fill="#22C55E"/>
<circle cx="108.999" cy="92.1948" r="2.95652" fill="#22C55E"/>
<circle cx="124.523" cy="92.1948" r="2.95652" fill="#22C55E"/>
<circle cx="140.042" cy="92.1948" r="2.95652" fill="#22C55E"/>
<circle cx="77.9565" cy="106.977" r="2.95652" fill="#22C55E"/>
<circle cx="93.48" cy="106.977" r="2.95652" fill="#22C55E"/>
<circle cx="108.999" cy="106.977" r="2.95652" fill="#22C55E"/>
<circle cx="124.523" cy="106.977" r="2.95652" fill="#22C55E"/>
<circle cx="140.042" cy="106.977" r="2.95652" fill="#22C55E"/>
</g>
</g>
</svg>
